<svg id="Layer_1" data-name="Layer 1" xmlns="http://www.w3.org/2000/svg" viewBox="0 0 238.16 10.15"><title>_</title><path d="M3.63,9.21A3.42,3.42,0,0,1,0,5.71a3.42,3.42,0,0,1,3.63-3.5,3.42,3.42,0,0,1,3.63,3.5A3.42,3.42,0,0,1,3.63,9.21Zm0-1.36a2,2,0,0,0,2-2.14,2,2,0,0,0-2-2.14,2,2,0,0,0-2,2.14A2,2,0,0,0,3.63,7.85Z" fill="#00a887"/><path d="M13.55,2.75a.65.65,0,0,1,.65-.48A.69.69,0,0,1,15,3a1,1,0,0,1-.11.43L12.3,8.71a.76.76,0,0,1-1.39,0L8.35,3.38A1,1,0,0,1,8.25,3,.69.69,0,0,1,9,2.27a.65.65,0,0,1,.65.48L11.61,7Z" fill="#00a887"/><path d="M18.13,7.69h3.32a.68.68,0,1,1,0,1.36H17.33a.8.8,0,0,1-.8-.8V3.18a.8.8,0,0,1,.8-.8h4a.68.68,0,0,1,0,1.36H18.13V5H20a.68.68,0,1,1,0,1.36H18.13Z" fill="#00a887"/><path d="M25.47,8.36a.8.8,0,0,1-1.6,0V3.18a.8.8,0,0,1,.8-.8H27.5c1.91,0,2.71.93,2.71,2.1a1.87,1.87,0,0,1-1.27,1.84l.95,1.74a.72.72,0,0,1,.11.37.73.73,0,0,1-.75.73.71.71,0,0,1-.68-.37L27.34,6.54H25.47Zm2.27-4.67H25.47V5.25h2.27a.8.8,0,0,0,.89-.79A.79.79,0,0,0,27.74,3.69Z" fill="#00a887"/><path d="M36.2,4.74A.76.76,0,0,1,35.43,4,.67.67,0,0,1,36,3.3l2.34-.69a1,1,0,0,1,.27-.05.75.75,0,0,1,.8.81v5a.8.8,0,0,1-.8.8.81.81,0,0,1-.8-.8V4.3l-1.4.41Z" fill="#00a887"/><path d="M46.54,4.17a2.38,2.38,0,0,1,1.68,2.3c0,1.5-1.16,2.75-3.47,2.75S41.28,8,41.28,6.46A2.38,2.38,0,0,1,43,4.17a2.08,2.08,0,0,1-1-1.83C41.94,1,43,0,44.75,0s2.82,1,2.82,2.34A2.08,2.08,0,0,1,46.54,4.17Zm.09,2.28C46.64,5.55,46,5,44.75,5s-1.88.57-1.88,1.47.65,1.44,1.88,1.44S46.64,7.24,46.64,6.45ZM46,2.5a1.27,1.27,0,0,0-2.54,0A1.27,1.27,0,0,0,46,2.5Z" fill="#00a887"/><path d="M53.15,9.21a3.3,3.3,0,0,1-3.46-3.38,3.46,3.46,0,0,1,6.92,0A3.3,3.3,0,0,1,53.15,9.21Zm0-1.36a1.86,1.86,0,0,0,1.86-2,1.86,1.86,0,1,0-3.71,0A1.86,1.86,0,0,0,53.15,7.85Z" fill="#00a887"/><path d="M65.57,6.29V8.36a.8.8,0,0,1-1.6,0V6.29L61.75,3.43a.73.73,0,0,1-.2-.48.67.67,0,0,1,.73-.68.74.74,0,0,1,.63.31l1.86,2.36,1.86-2.36a.71.71,0,0,1,.63-.31A.67.67,0,0,1,68,3a.73.73,0,0,1-.2.48Z" fill="#00a887"/><path d="M71,7.69h3.32a.68.68,0,1,1,0,1.36H70.25a.8.8,0,0,1-.8-.8V3.18a.8.8,0,0,1,.8-.8h4a.68.68,0,0,1,0,1.36H71V5h1.83a.68.68,0,0,1,0,1.36H71Z" fill="#00a887"/><path d="M83.13,8.12a.94.94,0,0,1,.08.33.74.74,0,0,1-1.43.24L81.24,7.6H78.35L77.8,8.69a.74.74,0,0,1-1.43-.24.94.94,0,0,1,.08-.33L79.13,2.7a.68.68,0,0,1,.67-.43.69.69,0,0,1,.67.43ZM78.89,6.38h1.8l-.89-2.1Z" fill="#00a887"/><path d="M86.42,8.36a.8.8,0,0,1-1.6,0V3.18a.8.8,0,0,1,.8-.8h2.83c1.91,0,2.71.93,2.71,2.1A1.87,1.87,0,0,1,89.9,6.32l.95,1.74a.72.72,0,0,1,.11.37.73.73,0,0,1-.75.73.71.71,0,0,1-.68-.37L88.29,6.54H86.42Zm2.27-4.67H86.42V5.25h2.27a.8.8,0,0,0,.89-.79A.79.79,0,0,0,88.69,3.69Z" fill="#00a887"/><path d="M95.85,9.21a4.34,4.34,0,0,1-2.63-.75.84.84,0,0,1-.43-.67.68.68,0,0,1,.69-.67.93.93,0,0,1,.53.19,3,3,0,0,0,1.8.59c.79,0,1.31-.25,1.31-.73s-.64-.64-1.17-.76c-2.39-.53-3-1.08-3-2.23s1.05-2,3-2a4.58,4.58,0,0,1,2,.47.76.76,0,0,1,.52.71.61.61,0,0,1-.64.6,1,1,0,0,1-.45-.11A3.43,3.43,0,0,0,96,3.53c-.92,0-1.4.19-1.4.61s.35.48,1.43.75c1.82.45,2.75.85,2.75,2.16S97.61,9.21,95.85,9.21Z" fill="#00a887"/><path d="M107.84,9.21a3.42,3.42,0,0,1-3.63-3.5,3.63,3.63,0,0,1,7.26,0A3.42,3.42,0,0,1,107.84,9.21Zm0-1.36a2,2,0,0,0,2-2.14,2,2,0,1,0-4.06,0A2,2,0,0,0,107.84,7.85Z" fill="#00a887"/><path d="M115,8.36a.8.8,0,0,1-1.6,0V3.18a.8.8,0,0,1,.8-.8h4a.68.68,0,1,1,0,1.36H115V5h1.86a.68.68,0,1,1,0,1.36H115Z" fill="#00a887"/><path d="M128.65,2.27a.8.8,0,0,1,.8.8V6.42a3,3,0,0,1-5.79.77.93.93,0,0,1,0-.17.7.7,0,0,1,.76-.75.72.72,0,0,1,.79.61,1.24,1.24,0,0,0,1.3,1,1.22,1.22,0,0,0,1.36-1.39V3.07A.8.8,0,0,1,128.65,2.27Z" fill="#00a887"/><path d="M137.58,8.12a.94.94,0,0,1,.08.33.74.74,0,0,1-1.43.24l-.55-1.09H132.8l-.55,1.09a.74.74,0,0,1-1.43-.24.94.94,0,0,1,.08-.33l2.67-5.42a.68.68,0,0,1,.67-.43.69.69,0,0,1,.67.43Zm-4.25-1.74h1.8l-.89-2.1Z" fill="#00a887"/><path d="M140.88,8.36a.8.8,0,0,1-1.6,0V3.18a.8.8,0,0,1,.8-.8h2.7c1.91,0,2.71.95,2.71,2.11s-.8,2.08-2.71,2.08h-1.9ZM143,3.7h-2.11V5.25H143a.78.78,0,1,0,0-1.55Z" fill="#00a887"/><path d="M152.75,8.12a.94.94,0,0,1,.08.33.74.74,0,0,1-1.43.24l-.55-1.09H148l-.55,1.09A.74.74,0,0,1,146,8.45a.94.94,0,0,1,.08-.33l2.67-5.42a.68.68,0,0,1,.67-.43.69.69,0,0,1,.67.43ZM148.5,6.38h1.8l-.89-2.1Z" fill="#00a887"/><path d="M159.24,6.54V3a.76.76,0,1,1,1.52,0V8.4a.74.74,0,0,1-.76.76.73.73,0,0,1-.59-.27L156,5V8.4a.76.76,0,0,1-1.52,0V3a.73.73,0,0,1,.76-.76.81.81,0,0,1,.6.29Z" fill="#00a887"/><path d="M164.71,7.69H168a.68.68,0,1,1,0,1.36h-4.13a.8.8,0,0,1-.8-.8V3.18a.8.8,0,0,1,.8-.8h4a.68.68,0,0,1,0,1.36h-3.16V5h1.83a.68.68,0,1,1,0,1.36h-1.83Z" fill="#00a887"/><path d="M173.22,9.21a4.34,4.34,0,0,1-2.63-.75.84.84,0,0,1-.43-.67.68.68,0,0,1,.69-.67.93.93,0,0,1,.53.19,3,3,0,0,0,1.8.59c.79,0,1.31-.25,1.31-.73s-.64-.64-1.17-.76c-2.39-.53-3-1.08-3-2.23s1.05-2,3-2a4.58,4.58,0,0,1,2,.47.76.76,0,0,1,.52.71.61.61,0,0,1-.64.6,1,1,0,0,1-.45-.11,3.43,3.43,0,0,0-1.44-.36c-.92,0-1.4.19-1.4.61s.35.48,1.43.75c1.82.45,2.75.85,2.75,2.16S175,9.21,173.22,9.21Z" fill="#00a887"/><path d="M179.62,7.69h3.32a.68.68,0,1,1,0,1.36h-4.13a.8.8,0,0,1-.8-.8V3.18a.8.8,0,0,1,.8-.8h4a.68.68,0,1,1,0,1.36h-3.16V5h1.83a.68.68,0,0,1,0,1.36h-1.83Z" fill="#00a887"/><path d="M194.95,10.15a.57.57,0,0,1-.55-.31L193.89,9a4.28,4.28,0,0,1-1.27.19A3.42,3.42,0,0,1,189,5.71a3.63,3.63,0,0,1,7.26,0A3.4,3.4,0,0,1,195,8.48l.48.76a.62.62,0,0,1,.08.31A.58.58,0,0,1,194.95,10.15Zm-2.32-2.3a2,2,0,0,0,.49-.05l-.4-.65a.59.59,0,0,1-.09-.32.57.57,0,0,1,.6-.59.52.52,0,0,1,.51.28l.41.67a2.23,2.23,0,0,0,.51-1.47,2,2,0,1,0-4.06,0A2,2,0,0,0,192.63,7.85Z" fill="#00a887"/><path d="M202.89,3.07a.8.8,0,1,1,1.6,0V6.32c0,1.75-1.2,2.9-3.2,2.9s-3.2-1.15-3.2-2.9V3.07a.8.8,0,1,1,1.6,0V6.44a1.61,1.61,0,0,0,3.2,0Z" fill="#00a887"/><path d="M212.61,8.12a.94.94,0,0,1,.08.33.74.74,0,0,1-1.43.24l-.55-1.09h-2.88l-.55,1.09a.74.74,0,0,1-1.43-.24.94.94,0,0,1,.08-.33l2.67-5.42a.68.68,0,0,1,.67-.43.69.69,0,0,1,.67.43Zm-4.25-1.74h1.8l-.89-2.1Z" fill="#00a887"/><path d="M218.84,7.69a.68.68,0,1,1,0,1.36H215.1a.8.8,0,0,1-.8-.8V3.07a.8.8,0,1,1,1.6,0V7.69Z" fill="#00a887"/><path d="M221.09,3.07a.8.8,0,1,1,1.6,0V8.36a.8.8,0,0,1-1.6,0Z" fill="#00a887"/><path d="M228.24,8.36a.8.8,0,0,1-1.6,0V3.74h-1.78a.68.68,0,1,1,0-1.36H230a.68.68,0,1,1,0,1.36h-1.78Z" fill="#00a887"/><path d="M235.74,6.29V8.36a.8.8,0,0,1-1.6,0V6.29l-2.22-2.86a.73.73,0,0,1-.2-.48.67.67,0,0,1,.73-.68.74.74,0,0,1,.63.31l1.86,2.36,1.86-2.36a.71.71,0,0,1,.63-.31.67.67,0,0,1,.73.68.73.73,0,0,1-.2.48Z" fill="#00a887"/></svg>