<svg id="Layer_1" data-name="Layer 1" xmlns="http://www.w3.org/2000/svg" viewBox="0 0 161.35 24.84"><title>_</title><polygon points="161.35 24.84 0 24.84 6.54 12.42 0 0 161.35 0 154.81 12.42 161.35 24.84" fill="#00a887"/><path d="M24.68,12.75a2.94,2.94,0,0,0,3,3.14,2.91,2.91,0,0,0,2.2-.9,1.2,1.2,0,0,1,.92-.49,1,1,0,0,1,1.1,1,1.22,1.22,0,0,1-.37.8,5.11,5.11,0,0,1-3.84,1.57,5,5,0,0,1-5.37-5.14A5,5,0,0,1,27.7,7.61a5.11,5.11,0,0,1,3.84,1.57,1.23,1.23,0,0,1,.37.8,1,1,0,0,1-1.1,1,1.2,1.2,0,0,1-.92-.49,2.9,2.9,0,0,0-2.2-.9A2.94,2.94,0,0,0,24.68,12.75Z" fill="#fff"/><path d="M41.42,15.65a1,1,0,1,1,0,2H35.93a1.18,1.18,0,0,1-1.18-1.18V8.87a1.18,1.18,0,1,1,2.35,0v6.78Z" fill="#fff"/><path d="M47.05,15.65h4.88a1,1,0,1,1,0,2H45.87a1.18,1.18,0,0,1-1.18-1.18V9a1.18,1.18,0,0,1,1.18-1.18H51.7a1,1,0,0,1,0,2H47.05v1.82h2.69a1,1,0,0,1,0,2H47.05Z" fill="#fff"/><path d="M64.62,16.28a1.39,1.39,0,0,1,.12.49,1.09,1.09,0,0,1-2.1.35l-.8-1.61H57.6l-.8,1.61a1.09,1.09,0,0,1-2.1-.35,1.38,1.38,0,0,1,.12-.49l3.92-8a1,1,0,0,1,1-.63,1,1,0,0,1,1,.63Zm-6.24-2.55H61l-1.31-3.08Z" fill="#fff"/><path d="M74.41,14V8.81a1.12,1.12,0,1,1,2.23,0v7.88a1.08,1.08,0,0,1-1.12,1.12,1.06,1.06,0,0,1-.86-.39l-5.08-5.76v5a1.12,1.12,0,0,1-2.24,0V8.81a1.07,1.07,0,0,1,1.12-1.12,1.2,1.2,0,0,1,.88.43Z" fill="#fff"/><path d="M92.72,15.65a1,1,0,1,1,0,2H87.23a1.18,1.18,0,0,1-1.18-1.18V8.87a1.18,1.18,0,1,1,2.35,0v6.78Z" fill="#fff"/><path d="M105.33,16.28a1.39,1.39,0,0,1,.12.49,1.09,1.09,0,0,1-2.1.35l-.8-1.61H98.31l-.8,1.61a1.09,1.09,0,0,1-2.1-.35,1.38,1.38,0,0,1,.12-.49l3.92-8a1,1,0,0,1,1-.63,1,1,0,0,1,1,.63Zm-6.24-2.55h2.65l-1.31-3.08Z" fill="#fff"/><path d="M116.51,10.24a2.33,2.33,0,0,1-1.69,2.22,2.32,2.32,0,0,1,2.24,2.37c0,1.49-1.22,2.82-3.94,2.82h-3.88a1.18,1.18,0,0,1-1.18-1.18V9a1.18,1.18,0,0,1,1.18-1.18h3.92C115.31,7.85,116.51,8.73,116.51,10.24Zm-6.1,1.35h2.65c.69,0,1.1-.39,1.1-.92s-.49-.9-1.16-.9h-2.59Zm0,1.92v2.22h2.86c.94,0,1.47-.45,1.47-1.12s-.57-1.1-1.51-1.1Z" fill="#fff"/><path d="M122.17,15.65h4.88a1,1,0,1,1,0,2H121a1.18,1.18,0,0,1-1.18-1.18V9A1.18,1.18,0,0,1,121,7.85h5.82a1,1,0,0,1,0,2h-4.65v1.82h2.69a1,1,0,0,1,0,2h-2.69Z" fill="#fff"/><path d="M137.41,15.65a1,1,0,1,1,0,2h-5.49a1.18,1.18,0,0,1-1.18-1.18V8.87a1.18,1.18,0,1,1,2.35,0v6.78Z" fill="#fff"/></svg>