<svg id="Layer_1" data-name="Layer 1" xmlns="http://www.w3.org/2000/svg" viewBox="0 0 246.83 38"><title>_</title><polygon points="246.83 38 0 38 10.01 19 0 0 246.83 0 236.82 19 246.83 38" fill="#41395f"/><path d="M33.81,21.86H39A1.07,1.07,0,1,1,39,24H32.55a1.26,1.26,0,0,1-1.26-1.26v-8a1.26,1.26,0,0,1,1.26-1.26h6.24a1.07,1.07,0,1,1,0,2.14h-5v2h2.88a1.07,1.07,0,1,1,0,2.14H33.81Z" fill="#fff"/><path d="M50.55,20.05V14.53a1.2,1.2,0,1,1,2.39,0V23a1.16,1.16,0,0,1-1.2,1.2,1.14,1.14,0,0,1-.92-.42l-5.44-6.17V23A1.2,1.2,0,0,1,43,23V14.53a1.15,1.15,0,0,1,1.2-1.2,1.28,1.28,0,0,1,.94.46Z" fill="#fff"/><path d="M64.41,19.7H59.24v3.21a1.26,1.26,0,1,1-2.52,0V14.59a1.26,1.26,0,1,1,2.52,0v2.9h5.17v-2.9a1.26,1.26,0,1,1,2.52,0v8.31a1.26,1.26,0,1,1-2.52,0Z" fill="#fff"/><path d="M80.35,22.53a1.49,1.49,0,0,1,.13.53,1.17,1.17,0,0,1-2.25.38l-.86-1.72H72.83L72,23.43a1.17,1.17,0,0,1-2.25-.38,1.49,1.49,0,0,1,.13-.53L74,14a1.07,1.07,0,0,1,1-.67,1.09,1.09,0,0,1,1,.67ZM73.67,19.8h2.83L75.1,16.5Z" fill="#fff"/><path d="M90.83,20.05V14.53a1.2,1.2,0,1,1,2.39,0V23a1.16,1.16,0,0,1-1.2,1.2,1.14,1.14,0,0,1-.92-.42l-5.44-6.17V23a1.2,1.2,0,0,1-2.39,0V14.53a1.15,1.15,0,0,1,1.2-1.2,1.28,1.28,0,0,1,.94.46Z" fill="#fff"/><path d="M98.74,18.75A3.15,3.15,0,0,0,102,22.11a3.11,3.11,0,0,0,2.35-1,1.28,1.28,0,0,1,1-.52,1.11,1.11,0,0,1,1.18,1.09,1.31,1.31,0,0,1-.4.86A5.47,5.47,0,0,1,102,24.25a5.38,5.38,0,0,1-5.75-5.5,5.38,5.38,0,0,1,5.75-5.5,5.47,5.47,0,0,1,4.12,1.68,1.31,1.31,0,0,1,.4.86,1.11,1.11,0,0,1-1.18,1.09,1.28,1.28,0,0,1-1-.53,3.11,3.11,0,0,0-2.35-1A3.15,3.15,0,0,0,98.74,18.75Z" fill="#fff"/><path d="M112.06,21.86h5.23a1.07,1.07,0,1,1,0,2.14H110.8a1.26,1.26,0,0,1-1.26-1.26v-8a1.26,1.26,0,0,1,1.26-1.26H117a1.07,1.07,0,1,1,0,2.14h-5v2h2.88a1.07,1.07,0,1,1,0,2.14h-2.88Z" fill="#fff"/><path d="M121.24,14.76a1.22,1.22,0,0,1,1.26-1.26h3.11c3.59,0,5.84,2.25,5.84,5.25S129.19,24,125.6,24H122.5a1.26,1.26,0,0,1-1.26-1.26Zm2.52.88v6.21h1.74c2.2,0,3.42-1.22,3.42-3.11s-1.22-3.11-3.42-3.11Z" fill="#fff"/><path d="M143.2,22.91a1.26,1.26,0,0,1-2.52,0V14.76a1.26,1.26,0,0,1,1.26-1.26h6.28a1.07,1.07,0,1,1,0,2.14h-5v2h2.92a1.07,1.07,0,1,1,0,2.14H143.2Z" fill="#fff"/><path d="M158.76,21.86a1.07,1.07,0,1,1,0,2.14h-5.88a1.26,1.26,0,0,1-1.26-1.26V14.59a1.26,1.26,0,0,1,2.52,0v7.26Z" fill="#fff"/><path d="M172.26,22.53a1.49,1.49,0,0,1,.13.53,1.17,1.17,0,0,1-2.25.38l-.86-1.72h-4.54l-.86,1.72a1.17,1.17,0,0,1-2.25-.38,1.49,1.49,0,0,1,.13-.53L166,14a1.07,1.07,0,0,1,1-.67,1.09,1.09,0,0,1,1,.67Zm-6.68-2.73h2.83L167,16.5Z" fill="#fff"/><path d="M181.2,14.09a1,1,0,0,1,1-.76,1.08,1.08,0,0,1,1.22,1.07,1.51,1.51,0,0,1-.17.67l-4,8.38a1.19,1.19,0,0,1-2.18,0l-4-8.38a1.51,1.51,0,0,1-.17-.67,1.08,1.08,0,0,1,1.22-1.07,1,1,0,0,1,1,.76l3,6.63Z" fill="#fff"/><path d="M190.79,24.25a5.37,5.37,0,0,1-5.71-5.5,5.71,5.71,0,0,1,11.42,0A5.37,5.37,0,0,1,190.79,24.25Zm0-2.14A3.13,3.13,0,0,0,194,18.75a3.2,3.2,0,1,0-6.38,0A3.13,3.13,0,0,0,190.79,22.11Z" fill="#fff"/><path d="M202.07,22.91a1.26,1.26,0,1,1-2.52,0V14.76a1.26,1.26,0,0,1,1.26-1.26h4.45c3,0,4.26,1.47,4.26,3.3a2.94,2.94,0,0,1-2,2.9L209,22.43a1.13,1.13,0,0,1,.17.59A1.14,1.14,0,0,1,208,24.17a1.11,1.11,0,0,1-1.07-.59L205,20.05h-2.94Zm3.57-7.35h-3.57V18h3.57A1.26,1.26,0,0,0,207,16.78,1.25,1.25,0,0,0,205.64,15.56Z" fill="#fff"/></svg>