<svg id="Layer_1" data-name="Layer 1" xmlns="http://www.w3.org/2000/svg" viewBox="0 0 162.85 26.8"><title>_</title><path d="M16.58,4.93H4.74V11h6.6a2.21,2.21,0,0,1,2.17,2.25,2.18,2.18,0,0,1-2.17,2.21H4.74v8.82a2.35,2.35,0,0,1-2.37,2.37A2.35,2.35,0,0,1,0,24.27V2.84A2.35,2.35,0,0,1,2.37.47H16.58A2.19,2.19,0,0,1,18.8,2.68,2.25,2.25,0,0,1,16.58,4.93Z" fill="#41395f"/><path d="M28.05,26.33a2.42,2.42,0,0,1-2.41-2.41V2.56A2.42,2.42,0,0,1,28.05.16a2.35,2.35,0,0,1,2.33,2.41v19.3H41.72a2.21,2.21,0,0,1,2.21,2.21,2.27,2.27,0,0,1-2.21,2.25Z" fill="#41395f"/><path d="M68.14,20.62H56.65l-2.21,4.74a2.1,2.1,0,0,1-2,1.28,2.2,2.2,0,0,1-2.25-2.21,2.07,2.07,0,0,1,.23-.93L60.37,1.4a2,2,0,0,1,2-1.24,2,2,0,0,1,2,1.24l9.94,22.1a2.07,2.07,0,0,1,.23.93,2.2,2.2,0,0,1-2.25,2.21,2,2,0,0,1-2-1.28Zm-5.75-14-4,9.86h8.08Z" fill="#41395f"/><path d="M101.16,3.3,91.57,25.36a2.23,2.23,0,0,1-2,1.28,2.13,2.13,0,0,1-2-1.28L77.9,3.3a2.31,2.31,0,0,1-.19-.89A2.27,2.27,0,0,1,79.88.16a2.22,2.22,0,0,1,2.06,1.28L89.51,19.5,97.16,1.44a2.18,2.18,0,0,1,2-1.28,2.21,2.21,0,0,1,2.21,2.21A2.67,2.67,0,0,1,101.16,3.3Z" fill="#41395f"/><path d="M119.63,26.8a13.11,13.11,0,0,1-13.28-13.4,13.28,13.28,0,1,1,26.57,0A13.11,13.11,0,0,1,119.63,26.8Zm0-22.53c-5.28,0-8.51,4.19-8.51,9.13s3.22,9.13,8.51,9.13,8.51-4.19,8.51-9.13S124.91,4.27,119.63,4.27Z" fill="#41395f"/><path d="M162.85,24.27a2.35,2.35,0,0,1-2.37,2.37,2.13,2.13,0,0,1-2.1-1.28L153.84,16H146v8.27a2.37,2.37,0,1,1-4.74,0V2.84A2.35,2.35,0,0,1,143.67.47h10c6.45,0,9.2,3.18,9.2,7.77a7.06,7.06,0,0,1-4.27,6.91l4,8.12A2.31,2.31,0,0,1,162.85,24.27ZM154.31,4.82H146v7.11h8.27a3.55,3.55,0,0,0,3.77-3.65A3.43,3.43,0,0,0,154.31,4.82Z" fill="#41395f"/></svg>