<svg id="Layer_1" data-name="Layer 1" xmlns="http://www.w3.org/2000/svg" viewBox="0 0 246.83 38"><title>_</title><polygon points="246.83 38 0 38 10.01 19 0 0 246.83 0 236.82 19 246.83 38" fill="#00a887"/><path d="M42.06,22.91a1.26,1.26,0,1,1-2.52,0V14.76A1.26,1.26,0,0,1,40.8,13.5h6.28a1.07,1.07,0,1,1,0,2.14h-5v2H45a1.07,1.07,0,1,1,0,2.14H42.06Z" fill="#fff"/><path d="M57.62,21.86a1.07,1.07,0,1,1,0,2.14H51.74a1.26,1.26,0,0,1-1.26-1.26V14.59a1.26,1.26,0,1,1,2.52,0v7.26Z" fill="#fff"/><path d="M71.12,22.53a1.49,1.49,0,0,1,.13.53,1.17,1.17,0,0,1-2.25.38l-.86-1.72H63.6l-.86,1.72a1.17,1.17,0,0,1-2.25-.38,1.49,1.49,0,0,1,.13-.53L64.82,14a1.07,1.07,0,0,1,1-.67,1.09,1.09,0,0,1,1,.67ZM64.44,19.8h2.83l-1.41-3.3Z" fill="#fff"/><path d="M80.06,14.09a1,1,0,0,1,1-.76,1.08,1.08,0,0,1,1.22,1.07,1.51,1.51,0,0,1-.17.67l-4,8.38a1.19,1.19,0,0,1-2.18,0l-4-8.38a1.51,1.51,0,0,1-.17-.67,1.08,1.08,0,0,1,1.22-1.07,1,1,0,0,1,1,.76l3,6.63Z" fill="#fff"/><path d="M89.65,24.25a5.37,5.37,0,0,1-5.71-5.5,5.71,5.71,0,0,1,11.42,0A5.37,5.37,0,0,1,89.65,24.25Zm0-2.14a3.13,3.13,0,0,0,3.19-3.36,3.2,3.2,0,1,0-6.38,0A3.13,3.13,0,0,0,89.65,22.11Z" fill="#fff"/><path d="M100.93,22.91a1.26,1.26,0,0,1-2.52,0V14.76a1.26,1.26,0,0,1,1.26-1.26h4.45c3,0,4.26,1.47,4.26,3.3a2.94,2.94,0,0,1-2,2.9l1.49,2.73A1.13,1.13,0,0,1,108,23a1.14,1.14,0,0,1-1.18,1.15,1.11,1.11,0,0,1-1.07-.59l-1.93-3.53h-2.94Zm3.57-7.35h-3.57V18h3.57a1.26,1.26,0,0,0,1.41-1.24A1.25,1.25,0,0,0,104.5,15.56Z" fill="#fff"/><path d="M121.82,24.25a6.83,6.83,0,0,1-4.14-1.18,1.32,1.32,0,0,1-.67-1,1.06,1.06,0,0,1,1.09-1,1.46,1.46,0,0,1,.84.29,4.72,4.72,0,0,0,2.83.92c1.24,0,2.06-.4,2.06-1.15s-1-1-1.85-1.2c-3.76-.84-4.72-1.7-4.72-3.51s1.66-3.09,4.7-3.09a7.19,7.19,0,0,1,3.19.74A1.2,1.2,0,0,1,126,15.1a1,1,0,0,1-1,.95,1.6,1.6,0,0,1-.71-.17,5.4,5.4,0,0,0-2.27-.57c-1.45,0-2.2.29-2.2,1s.55.76,2.25,1.18c2.86.71,4.33,1.34,4.33,3.4S124.6,24.25,121.82,24.25Z" fill="#fff"/><path d="M134.32,22.91a1.26,1.26,0,0,1-2.52,0V15.64H129a1.07,1.07,0,1,1,0-2.14h8.1a1.07,1.07,0,1,1,0,2.14h-2.79Z" fill="#fff"/><path d="M149,22.53a1.49,1.49,0,0,1,.13.53,1.17,1.17,0,0,1-2.25.38L146,21.71h-4.54l-.86,1.72a1.17,1.17,0,0,1-2.25-.38,1.49,1.49,0,0,1,.13-.53l4.2-8.52a1.07,1.07,0,0,1,1-.67,1.09,1.09,0,0,1,1,.67ZM142.3,19.8h2.83l-1.41-3.3Z" fill="#fff"/><path d="M160.94,16.06a2.5,2.5,0,0,1-1.81,2.37A2.48,2.48,0,0,1,161.53,21c0,1.6-1.3,3-4.22,3h-4.16a1.26,1.26,0,0,1-1.26-1.26v-8a1.26,1.26,0,0,1,1.26-1.26h4.2C159.66,13.5,160.94,14.45,160.94,16.06Zm-6.53,1.45h2.83c.73,0,1.18-.42,1.18-1s-.52-1-1.24-1h-2.77Zm0,2.06v2.37h3.07c1,0,1.57-.48,1.57-1.2s-.61-1.18-1.62-1.18Z" fill="#fff"/><path d="M164.6,14.59a1.26,1.26,0,0,1,2.52,0v8.31a1.26,1.26,0,0,1-2.52,0Z" fill="#fff"/><path d="M178.1,21.86a1.07,1.07,0,1,1,0,2.14h-5.88A1.26,1.26,0,0,1,171,22.74V14.59a1.26,1.26,0,0,1,2.52,0v7.26Z" fill="#fff"/><path d="M181.82,14.59a1.26,1.26,0,1,1,2.52,0v8.31a1.26,1.26,0,1,1-2.52,0Z" fill="#fff"/><path d="M193.2,22.91a1.26,1.26,0,0,1-2.52,0V15.64h-2.79a1.07,1.07,0,1,1,0-2.14H196a1.07,1.07,0,1,1,0,2.14H193.2Z" fill="#fff"/><path d="M204.74,19.65v3.25a1.26,1.26,0,1,1-2.52,0V19.65l-3.49-4.49a1.14,1.14,0,0,1-.31-.76,1.06,1.06,0,0,1,1.15-1.07,1.16,1.16,0,0,1,1,.48l2.92,3.72,2.92-3.72a1.12,1.12,0,0,1,1-.48,1.06,1.06,0,0,1,1.15,1.07,1.14,1.14,0,0,1-.31.76Z" fill="#fff"/></svg>