<svg id="Layer_1" data-name="Layer 1" xmlns="http://www.w3.org/2000/svg" viewBox="0 0 205.24 35.18"><title>_</title><rect width="205.24" height="35.18" rx="10" ry="10" fill="#e6e6e6"/><path d="M49.93,20.83a1.07,1.07,0,1,1,0,2.14H44.05a1.26,1.26,0,0,1-1.26-1.26V13.56a1.26,1.26,0,0,1,2.52,0v7.26Z" fill="#00a887"/><path d="M56,20.83h5.23a1.07,1.07,0,1,1,0,2.14H54.7a1.26,1.26,0,0,1-1.26-1.26v-8a1.26,1.26,0,0,1,1.26-1.26h6.24a1.07,1.07,0,1,1,0,2.14H56v2h2.88a1.07,1.07,0,1,1,0,2.14H56Z" fill="#00a887"/><path d="M74.77,21.5a1.48,1.48,0,0,1,.13.52,1.16,1.16,0,0,1-2.25.38l-.86-1.72H67.25l-.86,1.72A1.16,1.16,0,0,1,64.15,22a1.48,1.48,0,0,1,.13-.52L68.47,13a1.07,1.07,0,0,1,1-.67,1.09,1.09,0,0,1,1,.67Zm-6.68-2.73h2.83l-1.41-3.3Z" fill="#00a887"/><path d="M80.21,21.88a1.26,1.26,0,0,1-2.52,0V13.73A1.26,1.26,0,0,1,79,12.47H83.4c3,0,4.26,1.47,4.26,3.3a2.94,2.94,0,0,1-2,2.9l1.49,2.73a1.13,1.13,0,0,1,.17.59,1.14,1.14,0,0,1-1.18,1.16,1.11,1.11,0,0,1-1.07-.59L83.15,19H80.21Zm3.57-7.35H80.21V17h3.57a1.26,1.26,0,0,0,1.41-1.24A1.25,1.25,0,0,0,83.78,14.53Z" fill="#00a887"/><path d="M98.5,19V13.5a1.2,1.2,0,0,1,2.39,0v8.44a1.16,1.16,0,0,1-1.2,1.2,1.14,1.14,0,0,1-.92-.42l-5.44-6.17v5.4a1.2,1.2,0,1,1-2.39,0V13.5a1.14,1.14,0,0,1,1.2-1.2,1.28,1.28,0,0,1,.94.46Z" fill="#00a887"/><path d="M122.86,21.94a1.18,1.18,0,1,1-2.35,0V17.59L118,22.47a1.16,1.16,0,0,1-2.1,0l-2.54-4.87v4.35a1.18,1.18,0,1,1-2.35,0V13.37a1.08,1.08,0,0,1,1.18-1.07,1.2,1.2,0,0,1,1.13.69l3.63,7,3.63-7a1.2,1.2,0,0,1,1.13-.69,1.08,1.08,0,0,1,1.18,1.07Z" fill="#00a887"/><path d="M131.62,23.22a5.37,5.37,0,0,1-5.71-5.5,5.71,5.71,0,0,1,11.42,0A5.37,5.37,0,0,1,131.62,23.22Zm0-2.14a3.13,3.13,0,0,0,3.19-3.36,3.2,3.2,0,1,0-6.38,0A3.13,3.13,0,0,0,131.62,21.08Z" fill="#00a887"/><path d="M142.9,21.88a1.26,1.26,0,1,1-2.52,0V13.73a1.26,1.26,0,0,1,1.26-1.26h4.45c3,0,4.26,1.47,4.26,3.3a2.94,2.94,0,0,1-2,2.9l1.49,2.73A1.13,1.13,0,0,1,150,22a1.14,1.14,0,0,1-1.18,1.16,1.11,1.11,0,0,1-1.07-.59L145.84,19H142.9Zm3.57-7.35H142.9V17h3.57a1.26,1.26,0,0,0,1.41-1.24A1.25,1.25,0,0,0,146.46,14.53Z" fill="#00a887"/><path d="M156.15,20.83h5.23a1.07,1.07,0,1,1,0,2.14h-6.49a1.26,1.26,0,0,1-1.26-1.26v-8a1.26,1.26,0,0,1,1.26-1.26h6.24a1.07,1.07,0,1,1,0,2.14h-5v2H159a1.07,1.07,0,1,1,0,2.14h-2.88Z" fill="#00a887"/></svg>