<svg id="Layer_1" data-name="Layer 1" xmlns="http://www.w3.org/2000/svg" viewBox="0 0 158 26.71"><title>_</title><path d="M14.95,12.69l-.36-1.2s-1,0-1.38,0-1.44,0-1.44,0,.11.75.16,1.68a12.87,12.87,0,0,1,3-.47" fill="#41395f"/><path d="M13.3,15.67a4,4,0,0,0-1.33.71s0,0,0,.07v2.19a49.29,49.29,0,0,1-.17,4.95,8.41,8.41,0,0,1,.84,0c.48,0,.85,0,.85,0a48.34,48.34,0,0,1-.18-4.92Z" fill="#41395f"/><path d="M17.27,20a2.53,2.53,0,0,0,1.34-.82V16.43c0-1.65,0-3.12.17-4.95a8.07,8.07,0,0,1-.86,0,6.92,6.92,0,0,1-.83,0,48.43,48.43,0,0,1,.18,4.92Z" fill="#41395f"/><path d="M15.43,20.19A7,7,0,0,0,17.11,20l-1.4-4.73h-.29a6.59,6.59,0,0,0-1.93.33c.39,1.29.89,2.94,1.37,4.55a5.08,5.08,0,0,0,.56,0" fill="#41395f"/><path d="M15.64,22.78l.23.81s.68,0,1.33,0,1.49,0,1.49,0c0-.18,0-.66,0-1.2a12.86,12.86,0,0,1-3,.39" fill="#fff"/><path d="M19.38,14.11c0,.66,0,1.3,0,2a3.11,3.11,0,0,1,.42,1.64c0,3.16-3.38,3.21-4.35,3.21a6.74,6.74,0,0,1-1.36-.16c0,.4,0,.78,0,1.18a10.28,10.28,0,0,0,1.14.07c3,0,6.73-.8,6.73-4.3a3.73,3.73,0,0,0-2.61-3.62" fill="#41395f"/><path d="M11.18,21.27c0-.93,0-2.5,0-3.54a8.46,8.46,0,0,1,0-1.66c.62-.86,2.72-1.55,4.19-1.55a9.15,9.15,0,0,1,1.08.06c0-.38,0-.74,0-1.1-.41,0-.82,0-1.22,0a13.9,13.9,0,0,0-6,1.6s.08.7.08,2.7-.08,2.7-.08,2.7a13.68,13.68,0,0,0,2,.85" fill="#41395f"/><path d="M15.2,0,0,26.32H30.39Zm0,3.51L27.35,24.57H3Z" fill="#41395f"/><path d="M51.87,20.84V14.31a80.76,80.76,0,0,0-.31-8.24,11.08,11.08,0,0,0,1.37.07,13,13,0,0,0,1.43-.07c-.28,3.05-.28,5.52-.28,8.28v6.73c0,1.13.09,4.55.13,5.24,0,0-1.34-.06-2.62-.06-1.09,0-2.36.06-2.36.06C47,23.43,40.75,15.27,37.95,11.84v6.25a81,81,0,0,0,.31,8.23,13.9,13.9,0,0,0-1.4-.07,13.72,13.72,0,0,0-1.4.07A82.42,82.42,0,0,0,35.74,18V10.33a30.19,30.19,0,0,0-.31-4.25s1.76.07,2.53.07,2.44-.07,2.44-.07c2,2.68,8.36,10.92,11.47,14.77" fill="#41395f"/><path d="M72.38,14.75c-1.55-4.52-2.47-7.08-2.93-8.67,0,0-1.18.07-2.49.07-1.54,0-2.47-.07-2.47-.07s-2,6.25-4.14,11.79c-1.45,3.79-2.91,7.24-3.43,8.45,0,0,.68-.06,1.58-.06s1.66.06,1.66.06A59.77,59.77,0,0,1,62,19.65c1.4-.06,2.59,0,3.35,0s1.74,0,3,0c.89,3.3,1.59,5.77,1.81,6.66,0,0,1.46-.07,3.25-.07s3.35.07,3.35.07C76.11,25,74.19,20,72.38,14.75M65.3,17.88c-1,0-1.77,0-2.76,0,1-3.14,2.87-7.84,2.87-7.84s1.16,3.24,2.09,6.76l.29,1.09c-.83,0-1.63,0-2.5,0" fill="#41395f"/><path d="M89.5,26.71c-3.4,0-11.68-1.51-11.68-10.4,0-7.48,5.53-10.62,12.3-10.62,5,0,7.32,1.48,8,1.87v3.81h-.25c-.42-.86-2.33-4-7.28-4-3.58,0-6.78,2.18-6.78,9,0,7.88,4.13,8.63,6.06,8.63a5.14,5.14,0,0,0,2.63-.6c.23-.14.24-.24.26-.61,0,0,0-.9,0-2.63a27.35,27.35,0,0,0-.34-4.2c.58,0,1.69.07,3,.07s2.41,0,3-.07a67.73,67.73,0,0,0-.29,8,20.21,20.21,0,0,1-8.63,1.78" fill="#41395f"/><path d="M116.37,14.75c-1.55-4.52-2.47-7.08-2.93-8.67,0,0-1.18.07-2.49.07-1.54,0-2.46-.07-2.46-.07s-2,6.25-4.14,11.79c-1.45,3.79-2.91,7.24-3.43,8.45,0,0,.68-.06,1.58-.06s1.66.06,1.66.06A59.73,59.73,0,0,1,106,19.65c1.4-.06,2.59,0,3.35,0s1.74,0,3,0c.89,3.3,1.59,5.77,1.81,6.66,0,0,1.46-.07,3.25-.07s3.35.07,3.35.07c-.57-1.29-2.49-6.29-4.3-11.57m-7.08,3.13c-1,0-1.77,0-2.76,0,1-3.14,2.87-7.84,2.87-7.84s1.16,3.24,2.09,6.76l.29,1.09c-.83,0-1.63,0-2.5,0" fill="#41395f"/><path d="M138.38,10.57h-.2a6.15,6.15,0,0,0-5.8-3.25c-3.72,0-4.14,1.66-4.14,2.42,0,2.27,2.36,3.06,5.26,4.44,2.51,1.19,6.41,2.59,6.41,6.71,0,2.94-2.72,5.81-9.24,5.81A14.11,14.11,0,0,1,123,24.76c-.05-1.17-.06-3.2,0-4.25h.26a7.43,7.43,0,0,0,7.13,4.57c2.31,0,3.89-1,3.89-2.68,0-2.2-2.87-3.29-4.84-4.26s-6.21-2.67-6.21-6.63c0-3.67,3-5.82,8.14-5.82a28.92,28.92,0,0,1,5.74.78c.15,0,.83.18,1.21.23.05.85,0,2.67,0,3.87" fill="#41395f"/><path d="M158,24a24.23,24.23,0,0,1-5.65.6c-1.92,0-3.05-.05-3.05-.05s0-2.35,0-4.89V16.85s1.77-.05,3.12-.05A20.08,20.08,0,0,1,156,17a20.9,20.9,0,0,1,0-2.13,27.84,27.84,0,0,1-3.66.23c-2,0-3.09-.08-3.09-.08V11.9c0-2.85.06-4,.06-4s1.19-.09,2.88-.09a25.87,25.87,0,0,1,5.19.49c-.22-1.18-.33-2.21-.33-2.21-1.58.12-3.6.13-6.45.13s-6.74-.13-6.74-.13c.08.92.26,3.65.26,9.57,0,6.8-.16,9.73-.23,10.68,0,0,3.94-.13,6.88-.13s4.24,0,6.72.13A13.66,13.66,0,0,1,158,24" fill="#41395f"/></svg>