<svg id="Layer_1" data-name="Layer 1" xmlns="http://www.w3.org/2000/svg" viewBox="0 0 119.62 16.15"><title>_</title><path d="M11.18,9.94V1.77a1.77,1.77,0,0,1,3.54,0V14.26A1.71,1.71,0,0,1,13,16a1.68,1.68,0,0,1-1.37-.62l-8-9.13v8A1.79,1.79,0,0,1,1.77,16,1.79,1.79,0,0,1,0,14.26V1.77A1.69,1.69,0,0,1,1.77,0a1.9,1.9,0,0,1,1.4.68Z" fill="#41395f"/><path d="M33.59,13.61a2.19,2.19,0,0,1,.19.78,1.72,1.72,0,0,1-3.32.56l-1.27-2.55H22.46l-1.27,2.55a1.72,1.72,0,0,1-3.32-.56,2.19,2.19,0,0,1,.19-.78L24.27,1a1.58,1.58,0,0,1,1.55-1,1.61,1.61,0,0,1,1.55,1Zm-9.88-4H27.9L25.82,4.69Z" fill="#41395f"/><path d="M43,14.16a1.86,1.86,0,1,1-3.73,0V3.42H35.11a1.58,1.58,0,0,1,0-3.17h12a1.58,1.58,0,0,1,0,3.17H43Z" fill="#41395f"/><path d="M62.7,1.86a1.86,1.86,0,0,1,3.73,0V9.41c0,4.07-2.8,6.74-7.46,6.74s-7.46-2.67-7.46-6.74V1.86a1.86,1.86,0,0,1,3.73,0V9.69C55.25,11.56,56.52,13,59,13s3.73-1.43,3.73-3.29Z" fill="#41395f"/><path d="M74.87,14.16a1.86,1.86,0,1,1-3.73,0V2.11A1.87,1.87,0,0,1,73,.25h6.59c4.44,0,6.31,2.17,6.31,4.88a4.34,4.34,0,0,1-3,4.29l2.21,4a1.67,1.67,0,0,1,.25.87A1.69,1.69,0,0,1,83.66,16a1.64,1.64,0,0,1-1.58-.87L79.21,9.94H74.87ZM80.15,3.29H74.87V6.93h5.28a1.87,1.87,0,0,0,2.08-1.83A1.85,1.85,0,0,0,80.15,3.29Z" fill="#41395f"/><path d="M104.14,13.61a2.2,2.2,0,0,1,.19.78,1.72,1.72,0,0,1-3.32.56l-1.27-2.55H93l-1.27,2.55a1.72,1.72,0,0,1-3.32-.56,2.19,2.19,0,0,1,.19-.78L94.82,1a1.58,1.58,0,0,1,1.55-1,1.61,1.61,0,0,1,1.55,1Zm-9.88-4h4.19L96.37,4.69Z" fill="#41395f"/><path d="M118,12.61a1.58,1.58,0,1,1,0,3.17h-8.7a1.87,1.87,0,0,1-1.86-1.86V1.86a1.86,1.86,0,0,1,3.73,0V12.61Z" fill="#41395f"/></svg>