<svg id="Layer_1" data-name="Layer 1" xmlns="http://www.w3.org/2000/svg" viewBox="0 0 246.83 38"><title>_</title><polygon points="246.83 38 0 38 10.01 19 0 0 246.83 0 236.82 19 246.83 38" fill="#00a887"/><path d="M37.14,24.25a5.37,5.37,0,0,1-5.71-5.5,5.37,5.37,0,0,1,5.71-5.5,5.37,5.37,0,0,1,5.71,5.5A5.37,5.37,0,0,1,37.14,24.25Zm0-2.14a3.13,3.13,0,0,0,3.19-3.36,3.2,3.2,0,1,0-6.38,0A3.13,3.13,0,0,0,37.14,22.11Z" fill="#fff"/><path d="M48.42,22.91a1.26,1.26,0,0,1-2.52,0V14.76a1.26,1.26,0,0,1,1.26-1.26h6.28a1.07,1.07,0,1,1,0,2.14h-5v2h2.92a1.07,1.07,0,1,1,0,2.14H48.42Z" fill="#fff"/><path d="M59.36,22.91a1.26,1.26,0,0,1-2.52,0V14.76A1.26,1.26,0,0,1,58.1,13.5h6.28a1.07,1.07,0,1,1,0,2.14h-5v2h2.92a1.07,1.07,0,1,1,0,2.14H59.36Z" fill="#fff"/><path d="M71.68,19.86H67.4a1.08,1.08,0,1,1,0-2.16h4.28a1.08,1.08,0,1,1,0,2.16Z" fill="#fff"/><path d="M83.59,20.05V14.53a1.2,1.2,0,1,1,2.39,0V23a1.16,1.16,0,0,1-1.2,1.2,1.14,1.14,0,0,1-.92-.42l-5.44-6.17V23A1.2,1.2,0,0,1,76,23V14.53a1.15,1.15,0,0,1,1.2-1.2,1.28,1.28,0,0,1,.94.46Z" fill="#fff"/><path d="M94.74,24.25A5.37,5.37,0,0,1,89,18.75a5.71,5.71,0,0,1,11.42,0A5.37,5.37,0,0,1,94.74,24.25Zm0-2.14a3.13,3.13,0,0,0,3.19-3.36,3.2,3.2,0,1,0-6.38,0A3.13,3.13,0,0,0,94.74,22.11Z" fill="#fff"/><path d="M108,22.91a1.26,1.26,0,0,1-2.52,0V15.64h-2.79a1.07,1.07,0,1,1,0-2.14h8.1a1.07,1.07,0,1,1,0,2.14H108Z" fill="#fff"/><path d="M116.8,21.86H122A1.07,1.07,0,1,1,122,24h-6.49a1.26,1.26,0,0,1-1.26-1.26v-8a1.26,1.26,0,0,1,1.26-1.26h6.24a1.07,1.07,0,1,1,0,2.14h-5v2h2.88a1.07,1.07,0,1,1,0,2.14H116.8Z" fill="#fff"/><path d="M144.16,23a1.18,1.18,0,1,1-2.35,0V18.62l-2.54,4.87a1.16,1.16,0,0,1-2.1,0l-2.54-4.87V23a1.18,1.18,0,1,1-2.35,0V14.4a1.08,1.08,0,0,1,1.18-1.07,1.2,1.2,0,0,1,1.13.69l3.63,7,3.63-7a1.2,1.2,0,0,1,1.13-.69,1.08,1.08,0,0,1,1.18,1.07Z" fill="#fff"/><path d="M157.58,22.53a1.49,1.49,0,0,1,.13.53,1.17,1.17,0,0,1-2.25.38l-.86-1.72h-4.54l-.86,1.72a1.17,1.17,0,0,1-2.25-.38,1.49,1.49,0,0,1,.13-.53l4.2-8.52a1.07,1.07,0,0,1,1-.67,1.09,1.09,0,0,1,1,.67Zm-6.68-2.73h2.83l-1.41-3.3Z" fill="#fff"/><path d="M164.64,24.25a6.83,6.83,0,0,1-4.14-1.18,1.32,1.32,0,0,1-.67-1,1.06,1.06,0,0,1,1.09-1,1.46,1.46,0,0,1,.84.29,4.72,4.72,0,0,0,2.83.92c1.24,0,2.06-.4,2.06-1.15s-1-1-1.85-1.2c-3.76-.84-4.72-1.7-4.72-3.51s1.66-3.09,4.7-3.09A7.19,7.19,0,0,1,168,14a1.2,1.2,0,0,1,.82,1.11,1,1,0,0,1-1,.95,1.6,1.6,0,0,1-.71-.17,5.4,5.4,0,0,0-2.27-.57c-1.45,0-2.2.29-2.2,1s.55.76,2.25,1.18c2.86.71,4.33,1.34,4.33,3.4S167.41,24.25,164.64,24.25Z" fill="#fff"/><path d="M173.48,13.33a1.26,1.26,0,0,1,1.26,1.26v3.15l4.72-4.07a1.3,1.3,0,0,1,.86-.34,1.14,1.14,0,0,1,1.2,1.09,1,1,0,0,1-.4.88l-2.77,2.35,3.3,4.72a1,1,0,0,1,.21.67,1.15,1.15,0,0,1-1.18,1.11,1.2,1.2,0,0,1-1-.52l-3.07-4.45-1.83,1.6v2.12a1.26,1.26,0,0,1-2.52,0V14.59A1.26,1.26,0,0,1,173.48,13.33Z" fill="#fff"/><path d="M184.93,14.59a1.26,1.26,0,1,1,2.52,0v8.31a1.26,1.26,0,1,1-2.52,0Z" fill="#fff"/><path d="M198.85,20.05V14.53a1.2,1.2,0,1,1,2.39,0V23a1.16,1.16,0,0,1-1.2,1.2,1.14,1.14,0,0,1-.92-.42l-5.44-6.17V23a1.2,1.2,0,0,1-2.39,0V14.53a1.15,1.15,0,0,1,1.2-1.2,1.28,1.28,0,0,1,.94.46Z" fill="#fff"/><path d="M210.84,18.25h3.21a1,1,0,0,1,1,1v2.48a1,1,0,0,1-.31.73,6.52,6.52,0,0,1-4.54,1.76c-4.07,0-5.94-2.5-5.94-5.5,0-3.42,2.33-5.5,5.94-5.5a6,6,0,0,1,3.91,1.34,1.09,1.09,0,0,1,.4.8,1.07,1.07,0,0,1-1.13,1,1.34,1.34,0,0,1-.8-.25,4,4,0,0,0-2.37-.78,3.12,3.12,0,0,0-3.42,3.34,3.2,3.2,0,0,0,3.49,3.44,4.14,4.14,0,0,0,2.37-.69V20.3h-1.83a1,1,0,1,1,0-2.06Z" fill="#fff"/></svg>