<svg id="Layer_1" data-name="Layer 1" xmlns="http://www.w3.org/2000/svg" viewBox="0 0 184.73 8.91"><title>_</title><path d="M0,1.09a1,1,0,1,1,2,0V7.82a1,1,0,0,1-2,0Z" fill="#41395f"/><path d="M11.19,5.51V1a1,1,0,1,1,1.94,0V7.87a.94.94,0,0,1-1,1,.92.92,0,0,1-.75-.34L7,3.5V7.87a1,1,0,0,1-1.94,0V1a.93.93,0,0,1,1-1A1,1,0,0,1,6.8.44Z" fill="#41395f"/><path d="M20.16,7.82a1,1,0,0,1-2,0V1.94H15.86a.87.87,0,0,1,0-1.73h6.56a.87.87,0,0,1,0,1.73H20.16Z" fill="#41395f"/><path d="M27.16,7H31.4a.87.87,0,0,1,0,1.73H26.14a1,1,0,0,1-1-1V1.22a1,1,0,0,1,1-1h5a.87.87,0,0,1,0,1.73h-4V3.52h2.33a.87.87,0,0,1,0,1.73H27.16Z" fill="#41395f"/><path d="M40.63,5.51V1a1,1,0,1,1,1.94,0V7.87a.94.94,0,0,1-1,1,.92.92,0,0,1-.75-.34l-4.4-5V7.87a1,1,0,0,1-1.94,0V1a.93.93,0,0,1,1-1,1,1,0,0,1,.77.37Z" fill="#41395f"/><path d="M49,8.91a5.53,5.53,0,0,1-3.35-1,1.07,1.07,0,0,1-.54-.85A.86.86,0,0,1,46,6.25a1.18,1.18,0,0,1,.68.24A3.81,3.81,0,0,0,49,7.24c1,0,1.67-.32,1.67-.93s-.82-.82-1.5-1c-3-.68-3.82-1.38-3.82-2.84S46.66,0,49.13,0a5.83,5.83,0,0,1,2.58.59,1,1,0,0,1,.66.9.77.77,0,0,1-.82.76A1.3,1.3,0,0,1,51,2.13a4.37,4.37,0,0,0-1.84-.46c-1.17,0-1.78.24-1.78.78s.44.61,1.82,1c2.31.58,3.5,1.09,3.5,2.75S51.25,8.91,49,8.91Z" fill="#41395f"/><path d="M55.11,1.09a1,1,0,1,1,2,0V7.82a1,1,0,0,1-2,0Z" fill="#41395f"/><path d="M62.22,7.82a1,1,0,0,1-2,0V1.22a1,1,0,0,1,1-1h5.08a.87.87,0,0,1,0,1.73H62.22V3.52h2.36a.87.87,0,0,1,0,1.73H62.22Z" fill="#41395f"/><path d="M73.3,5.18V7.82a1,1,0,0,1-2,0V5.18L68.44,1.55a.93.93,0,0,1-.25-.61.86.86,0,0,1,.94-.87.94.94,0,0,1,.8.39l2.36,3,2.36-3a.9.9,0,0,1,.8-.39.86.86,0,0,1,.94.87.93.93,0,0,1-.25.61Z" fill="#41395f"/><path d="M86.76,5.18V7.82a1,1,0,0,1-2,0V5.18L81.9,1.55a.93.93,0,0,1-.25-.61.86.86,0,0,1,.94-.87.94.94,0,0,1,.8.39l2.36,3,2.36-3a.9.9,0,0,1,.8-.39.86.86,0,0,1,.94.87.93.93,0,0,1-.25.61Z" fill="#41395f"/><path d="M95.48,8.91a4.35,4.35,0,0,1-4.62-4.45,4.63,4.63,0,0,1,9.25,0A4.35,4.35,0,0,1,95.48,8.91Zm0-1.73a2.54,2.54,0,0,0,2.58-2.72,2.59,2.59,0,1,0-5.17,0A2.54,2.54,0,0,0,95.48,7.17Z" fill="#41395f"/><path d="M108.55,1.09a1,1,0,1,1,2,0V5.22c0,2.23-1.53,3.69-4.08,3.69s-4.08-1.46-4.08-3.69V1.09a1,1,0,1,1,2,0V5.37a2.06,2.06,0,0,0,4.08,0Z" fill="#41395f"/><path d="M115.56,7.82a1,1,0,0,1-2,0V1.22a1,1,0,0,1,1-1h3.6c2.43,0,3.45,1.19,3.45,2.67A2.38,2.38,0,0,1,120,5.22l1.21,2.21a.93.93,0,0,1-.82,1.41.9.9,0,0,1-.87-.47l-1.56-2.86h-2.38Zm2.89-5.95h-2.89v2h2.89a1,1,0,0,0,1.14-1A1,1,0,0,0,118.45,1.87Z" fill="#41395f"/><path d="M132.3,8.91A5.53,5.53,0,0,1,129,8a1.07,1.07,0,0,1-.54-.85.86.86,0,0,1,.88-.85,1.18,1.18,0,0,1,.68.24,3.81,3.81,0,0,0,2.29.75c1,0,1.67-.32,1.67-.93s-.82-.82-1.5-1c-3-.68-3.82-1.38-3.82-2.84S130,0,132.42,0A5.83,5.83,0,0,1,135,.59a1,1,0,0,1,.66.9.77.77,0,0,1-.82.76,1.3,1.3,0,0,1-.58-.13,4.37,4.37,0,0,0-1.84-.46c-1.17,0-1.78.24-1.78.78s.44.61,1.82,1c2.31.58,3.5,1.09,3.5,2.75S134.55,8.91,132.3,8.91Z" fill="#41395f"/><path d="M140.4,7h4.23a.87.87,0,0,1,0,1.73h-5.25a1,1,0,0,1-1-1V1.22a1,1,0,0,1,1-1h5a.87.87,0,0,1,0,1.73h-4V3.52h2.33a.87.87,0,0,1,0,1.73H140.4Z" fill="#41395f"/><path d="M153.86,5.51V1a1,1,0,1,1,1.94,0V7.87a.94.94,0,0,1-1,1,.92.92,0,0,1-.75-.34l-4.4-5V7.87a1,1,0,0,1-1.94,0V1a.93.93,0,0,1,1-1,1,1,0,0,1,.77.37Z" fill="#41395f"/><path d="M162.24,8.91a5.53,5.53,0,0,1-3.35-1,1.07,1.07,0,0,1-.54-.85.86.86,0,0,1,.88-.85,1.18,1.18,0,0,1,.68.24,3.81,3.81,0,0,0,2.29.75c1,0,1.67-.32,1.67-.93s-.82-.82-1.5-1c-3-.68-3.82-1.38-3.82-2.84S159.89,0,162.36,0a5.83,5.83,0,0,1,2.58.59,1,1,0,0,1,.66.9.77.77,0,0,1-.82.76,1.3,1.3,0,0,1-.58-.13,4.37,4.37,0,0,0-1.84-.46c-1.17,0-1.78.24-1.78.78s.44.61,1.82,1c2.31.58,3.5,1.09,3.5,2.75S164.48,8.91,162.24,8.91Z" fill="#41395f"/><path d="M170.33,7h4.23a.87.87,0,0,1,0,1.73h-5.25a1,1,0,0,1-1-1V1.22a1,1,0,0,1,1-1h5a.87.87,0,0,1,0,1.73h-4V3.52h2.33a.87.87,0,0,1,0,1.73h-2.33Z" fill="#41395f"/><path d="M181.06,8.91a5.53,5.53,0,0,1-3.35-1,1.07,1.07,0,0,1-.54-.85.86.86,0,0,1,.88-.85,1.18,1.18,0,0,1,.68.24,3.81,3.81,0,0,0,2.29.75c1,0,1.67-.32,1.67-.93s-.82-.82-1.5-1c-3-.68-3.82-1.38-3.82-2.84S178.71,0,181.17,0a5.83,5.83,0,0,1,2.58.59,1,1,0,0,1,.66.9.77.77,0,0,1-.82.76,1.3,1.3,0,0,1-.58-.13,4.37,4.37,0,0,0-1.84-.46c-1.17,0-1.78.24-1.78.78s.44.61,1.82,1c2.31.58,3.5,1.09,3.5,2.75S183.3,8.91,181.06,8.91Z" fill="#41395f"/></svg>