<svg id="Layer_1" data-name="Layer 1" xmlns="http://www.w3.org/2000/svg" viewBox="0 0 169.6 10.1"><title>_</title><path d="M8.6,7.51a1.2,1.2,0,0,1,.1.42.94.94,0,0,1-1.82.31l-.7-1.39H2.52l-.7,1.39A.91.91,0,0,1,1,8.84a.9.9,0,0,1-1-.9,1.19,1.19,0,0,1,.1-.42L3.5.61A.86.86,0,0,1,4.35.07.88.88,0,0,1,5.2.61ZM3.2,5.3H5.49L4.35,2.63Z" fill="#00a887"/><path d="M22,1.09a1,1,0,1,1,2,0V5.22c0,2.23-1.53,3.69-4.08,3.69s-4.08-1.46-4.08-3.69V1.09a1,1,0,1,1,2,0V5.37a1.8,1.8,0,0,0,2,1.8,1.8,1.8,0,0,0,2-1.8Z" fill="#00a887"/><path d="M33,5.51V1A1,1,0,1,1,35,1V7.87a.94.94,0,0,1-1,1,.92.92,0,0,1-.75-.34l-4.4-5V7.87a1,1,0,0,1-1.94,0V1a.93.93,0,0,1,1-1,1,1,0,0,1,.77.37Z" fill="#00a887"/><path d="M38,1.09a1,1,0,1,1,2,0V7.82a1,1,0,0,1-2,0Z" fill="#00a887"/><path d="M50.06,10.1a.72.72,0,0,1-.7-.39l-.65-1a5.41,5.41,0,0,1-1.61.24,4.35,4.35,0,0,1-4.62-4.45A4.35,4.35,0,0,1,47.11,0a4.35,4.35,0,0,1,4.62,4.45A4.33,4.33,0,0,1,50.08,8l.61,1a.79.79,0,0,1,.1.39A.73.73,0,0,1,50.06,10.1Zm-3-2.92a2.56,2.56,0,0,0,.63-.07l-.51-.83a.75.75,0,0,1-.12-.41.73.73,0,0,1,.76-.75.67.67,0,0,1,.65.36l.53.85a2.83,2.83,0,0,0,.65-1.87,2.59,2.59,0,1,0-5.17,0A2.54,2.54,0,0,0,47.11,7.17Z" fill="#00a887"/><path d="M60.18,1.09a1,1,0,1,1,2,0V5.22c0,2.23-1.53,3.69-4.08,3.69s-4.08-1.46-4.08-3.69V1.09a1,1,0,1,1,2,0V5.37a2.06,2.06,0,0,0,4.08,0Z" fill="#00a887"/><path d="M67.18,7h4.23a.87.87,0,0,1,0,1.73H66.16a1,1,0,0,1-1-1V1.22a1,1,0,0,1,1-1h5a.87.87,0,0,1,0,1.73h-4V3.52h2.33a.87.87,0,0,1,0,1.73H67.18Z" fill="#00a887"/><path d="M79.59,1.09a1,1,0,1,1,2,0V7.82a1,1,0,0,1-2,0Z" fill="#00a887"/><path d="M90.78,5.51V1a1,1,0,1,1,1.94,0V7.87a.94.94,0,0,1-1,1A.92.92,0,0,1,91,8.5l-4.4-5V7.87a1,1,0,0,1-1.94,0V1a.93.93,0,0,1,1-1,1,1,0,0,1,.77.37Z" fill="#00a887"/><path d="M100.4,4H103a.8.8,0,0,1,.83.83v2a.78.78,0,0,1-.25.59,5.27,5.27,0,0,1-3.67,1.43c-3.3,0-4.81-2-4.81-4.45C95.1,1.68,97,0,99.91,0a4.89,4.89,0,0,1,3.16,1.09.88.88,0,0,1,.32.65.87.87,0,0,1-.92.85,1.08,1.08,0,0,1-.65-.21,3.23,3.23,0,0,0-1.92-.63,2.53,2.53,0,0,0-2.77,2.7A2.59,2.59,0,0,0,100,7.24a3.34,3.34,0,0,0,1.92-.56v-1H100.4a.83.83,0,1,1,0-1.67Z" fill="#00a887"/><path d="M108.34,7.82a1,1,0,0,1-2,0V1.22a1,1,0,0,1,1-1h3.6c2.43,0,3.45,1.19,3.45,2.67a2.38,2.38,0,0,1-1.61,2.35L114,7.43a.91.91,0,0,1,.14.48.92.92,0,0,1-1,.93.9.9,0,0,1-.87-.47l-1.56-2.86h-2.38Zm2.89-5.95h-2.89v2h2.89a1,1,0,0,0,1.14-1A1,1,0,0,0,111.23,1.87Z" fill="#00a887"/><path d="M119,7h4.23a.87.87,0,0,1,0,1.73H118a1,1,0,0,1-1-1V1.22a1,1,0,0,1,1-1h5a.87.87,0,0,1,0,1.73h-4V3.52h2.33a.87.87,0,0,1,0,1.73H119Z" fill="#00a887"/><path d="M126.32,1.22a1,1,0,0,1,1-1h2.52c2.91,0,4.73,1.82,4.73,4.25s-1.82,4.25-4.73,4.25h-2.52a1,1,0,0,1-1-1Zm2,.71V7h1.41c1.78,0,2.77-1,2.77-2.52s-1-2.52-2.77-2.52Z" fill="#00a887"/><path d="M136.93,1.09a1,1,0,1,1,2,0V7.82a1,1,0,0,1-2,0Z" fill="#00a887"/><path d="M144,7h4.23a.87.87,0,0,1,0,1.73H143a1,1,0,0,1-1-1V1.22a1,1,0,0,1,1-1h5a.87.87,0,0,1,0,1.73h-4V3.52h2.33a.87.87,0,0,1,0,1.73H144Z" fill="#00a887"/><path d="M157.5,5.51V1a1,1,0,1,1,1.94,0V7.87a.94.94,0,0,1-1,1,.92.92,0,0,1-.75-.34l-4.4-5V7.87a1,1,0,0,1-1.94,0V1a.93.93,0,0,1,1-1,1,1,0,0,1,.77.37Z" fill="#00a887"/><path d="M166.48,7.82a1,1,0,0,1-2,0V1.94h-2.26a.87.87,0,0,1,0-1.73h6.56a.87.87,0,0,1,0,1.73h-2.26Z" fill="#00a887"/></svg>