<svg id="Layer_1" data-name="Layer 1" xmlns="http://www.w3.org/2000/svg" viewBox="0 0 136.35 8.91"><title>_</title><path d="M2,7.82a1,1,0,0,1-2,0V1.22a1,1,0,0,1,1-1H6.1a.87.87,0,0,1,0,1.73H2V3.52H4.4a.87.87,0,0,1,0,1.73H2Z" fill="#00a887"/><path d="M12.58,8.91A4.35,4.35,0,0,1,8,4.45,4.35,4.35,0,0,1,12.58,0,4.35,4.35,0,0,1,17.2,4.45,4.35,4.35,0,0,1,12.58,8.91Zm0-1.73a2.54,2.54,0,0,0,2.58-2.72,2.59,2.59,0,1,0-5.17,0A2.54,2.54,0,0,0,12.58,7.17Z" fill="#00a887"/><path d="M25.65,1.09a1,1,0,1,1,2,0V5.22c0,2.23-1.53,3.69-4.08,3.69s-4.08-1.46-4.08-3.69V1.09a1,1,0,1,1,2,0V5.37a1.8,1.8,0,0,0,2,1.8,1.8,1.8,0,0,0,2-1.8Z" fill="#00a887"/><path d="M36.73,5.51V1a1,1,0,1,1,1.94,0V7.87a.94.94,0,0,1-1,1A.92.92,0,0,1,37,8.5l-4.4-5V7.87a1,1,0,0,1-1.94,0V1a.93.93,0,0,1,1-1,1,1,0,0,1,.77.37Z" fill="#00a887"/><path d="M41.65,1.22a1,1,0,0,1,1-1h2.52C48.09.2,49.91,2,49.91,4.45S48.09,8.7,45.18,8.7H42.67a1,1,0,0,1-1-1Zm2,.71V7H45.1c1.78,0,2.77-1,2.77-2.52s-1-2.52-2.77-2.52Z" fill="#00a887"/><path d="M57.27,1.09a1,1,0,1,1,2,0V7.82a1,1,0,0,1-2,0Z" fill="#00a887"/><path d="M68.45,5.51V1a1,1,0,1,1,1.94,0V7.87a.94.94,0,0,1-1,1,.92.92,0,0,1-.75-.34l-4.4-5V7.87a1,1,0,0,1-1.94,0V1a.93.93,0,0,1,1-1,1,1,0,0,1,.77.37Z" fill="#00a887"/><path d="M84.5,5.51V1a1,1,0,1,1,1.94,0V7.87a.94.94,0,0,1-1,1,.92.92,0,0,1-.75-.34l-4.4-5V7.87a1,1,0,0,1-1.94,0V1a.93.93,0,0,1,1-1,1,1,0,0,1,.77.37Z" fill="#00a887"/><path d="M97.22,7.51a1.2,1.2,0,0,1,.1.42.94.94,0,0,1-1.82.31l-.7-1.39H91.13l-.7,1.39a.94.94,0,0,1-1.82-.31,1.19,1.19,0,0,1,.1-.42l3.4-6.9A.86.86,0,0,1,93,.07a.88.88,0,0,1,.85.54ZM91.81,5.3h2.29L93,2.63Z" fill="#00a887"/><path d="M102.54,7.82a1,1,0,0,1-2,0V1.94H98.24a.87.87,0,0,1,0-1.73h6.56a.87.87,0,0,1,0,1.73h-2.26Z" fill="#00a887"/><path d="M113.6,1.09a1,1,0,1,1,2,0V5.22c0,2.23-1.53,3.69-4.08,3.69s-4.08-1.46-4.08-3.69V1.09a1,1,0,1,1,2,0V5.37a2.06,2.06,0,0,0,4.08,0Z" fill="#00a887"/><path d="M120.61,7.82a1,1,0,0,1-2,0V1.22a1,1,0,0,1,1-1h3.6c2.43,0,3.45,1.19,3.45,2.67A2.38,2.38,0,0,1,125,5.22l1.21,2.21a.93.93,0,0,1-.82,1.41.9.9,0,0,1-.87-.47L123,5.51h-2.38Zm2.89-5.95h-2.89v2h2.89a1,1,0,0,0,1.14-1A1,1,0,0,0,123.5,1.87Z" fill="#00a887"/><path d="M131.25,7h4.23a.87.87,0,0,1,0,1.73h-5.25a1,1,0,0,1-1-1V1.22a1,1,0,0,1,1-1h5a.87.87,0,0,1,0,1.73h-4V3.52h2.33a.87.87,0,0,1,0,1.73h-2.33Z" fill="#00a887"/></svg>