<svg id="Layer_1" data-name="Layer 1" xmlns="http://www.w3.org/2000/svg" viewBox="0 0 214.55 43.18"><title>_</title><path d="M37.14.38H.57L0,5.71s2.51-.66,14.13-.49l.23,34.44s0,2.87-.7,3.53H23.91a10.64,10.64,0,0,1-.67-3.85V5.22s6.38,0,13.67.49Z" fill="#41395f"/><path d="M41.68.38a20.76,20.76,0,0,0-.21,4.51l.46,35.26a30.68,30.68,0,0,0-.47,3H51.71l-.21-3.36V4.73S68.36,2.43,68.13,11c0,0,2.51,9.18-13.22,8L68.36,40.31l1.35,2.87H80.87L66.53,22.6s11.64-1.72,11.62-12c0,0,1.35-10.09-18.7-10.25Z" fill="#41395f"/><path d="M83.83.38l.48,3,.23,36.24-.48,3.53H117.4l-.22-4.84A207.74,207.74,0,0,1,93.94,39V23.75a143.82,143.82,0,0,1,16.19.66l-.24-5.74A145.59,145.59,0,0,1,94.17,19l-.23-14.1s19,.33,22.77,1V.38Z" fill="#41395f"/><polygon points="148.17 42.8 158.2 42.8 157.53 40.1 157.76 1.89 157.97 0 148.4 0 148.41 2.05 148.41 17.63 130.05 17.63 129.96 2.21 130.17 0 120.6 0 120.61 3.2 120.61 40.26 120.37 42.8 130.63 42.8 130.19 40.1 130.08 23.2 148.41 23.2 148.41 40.1 148.17 42.8" fill="#41395f"/><path d="M194.58,43h10.48l-1.58-2.87L186.6.19H176.13l2.12,3.26S168.85,24.73,160.63,43h8.66l.47-3.69,2.58-6.24h18.34ZM174.49,27.9l7.27-17.54,6.89,17.54Z" fill="#41395f"/><path d="M209.81,9.59a4.71,4.71,0,0,1-4.74-4.8,4.74,4.74,0,1,1,9.49,0A4.71,4.71,0,0,1,209.81,9.59Zm0-8.78a3.85,3.85,0,0,0-3.88,4,3.88,3.88,0,1,0,7.76,0A3.85,3.85,0,0,0,209.81.81Zm-.63,4.82V7.29h-1.31v-5h2.33A1.64,1.64,0,0,1,212,4a1.46,1.46,0,0,1-1,1.52l1.18,1.78h-1.44l-1-1.65Zm.92-2.28h-.92V4.59h.92a.62.62,0,1,0,0-1.23Z" fill="#41395f"/></svg>