<svg id="Layer_1" data-name="Layer 1" xmlns="http://www.w3.org/2000/svg" viewBox="0 0 197.4 8.36"><title>_</title><path d="M3,7.59A2.81,2.81,0,0,1,0,4.71,2.81,2.81,0,0,1,3,1.83,2.81,2.81,0,0,1,6,4.71,2.81,2.81,0,0,1,3,7.59ZM3,6.47A1.64,1.64,0,0,0,4.67,4.71,1.64,1.64,0,0,0,3,2.95,1.64,1.64,0,0,0,1.32,4.71,1.64,1.64,0,0,0,3,6.47Z" fill="#00a885"/><path d="M11.21,2.27a.53.53,0,0,1,.54-.4.57.57,0,0,1,.64.56.79.79,0,0,1-.09.35L10.19,7.17A.62.62,0,0,1,9,7.17L6.94,2.78a.79.79,0,0,1-.09-.35.57.57,0,0,1,.64-.56.53.53,0,0,1,.54.4l1.6,3.48Z" fill="#00a885"/><path d="M15,6.34h2.74a.56.56,0,0,1,0,1.12h-3.4a.66.66,0,0,1-.66-.66V2.62A.66.66,0,0,1,14.39,2h3.27a.56.56,0,1,1,0,1.12H15v1h1.51a.56.56,0,0,1,0,1.12H15Z" fill="#00a885"/><path d="M21.15,6.89a.66.66,0,1,1-1.32,0V2.62A.66.66,0,0,1,20.49,2h2.33c1.57,0,2.23.77,2.23,1.73A1.54,1.54,0,0,1,24,5.2l.78,1.43a.59.59,0,0,1,.09.31.6.6,0,0,1-.62.6.58.58,0,0,1-.56-.31l-1-1.85H21.15ZM23,3H21.15V4.32H23a.66.66,0,0,0,.74-.65A.65.65,0,0,0,23,3Z" fill="#00a885"/><path d="M30,3.91a.62.62,0,0,1-.63-.62.56.56,0,0,1,.43-.57l1.92-.57a.79.79,0,0,1,.22,0,.62.62,0,0,1,.66.67V6.89a.66.66,0,0,1-.66.66.67.67,0,0,1-.66-.66V3.54l-1.16.34Z" fill="#00a885"/><path d="M38.55,3.43a2,2,0,0,1,1.39,1.89c0,1.23-1,2.27-2.86,2.27s-2.86-1-2.86-2.27A2,2,0,0,1,35.6,3.43a1.72,1.72,0,0,1-.85-1.51C34.75.84,35.59,0,37.08,0S39.4.84,39.4,1.93A1.72,1.72,0,0,1,38.55,3.43Zm.08,1.88c0-.74-.54-1.21-1.55-1.21s-1.55.47-1.55,1.21.54,1.19,1.55,1.19S38.63,6,38.63,5.31Zm-.51-3.26a1,1,0,0,0-2.09,0,1,1,0,0,0,2.09,0Z" fill="#00a885"/><path d="M44,7.59a2.72,2.72,0,0,1-2.85-2.78,2.85,2.85,0,0,1,5.7,0A2.72,2.72,0,0,1,44,7.59Zm0-1.12a1.53,1.53,0,0,0,1.53-1.66,1.53,1.53,0,1,0-3.06,0A1.53,1.53,0,0,0,44,6.47Z" fill="#00a885"/><path d="M54.27,5.18V6.89a.66.66,0,0,1-1.32,0V5.18L51.13,2.83a.6.6,0,0,1-.17-.4.56.56,0,0,1,.61-.56.61.61,0,0,1,.52.25l1.53,1.95,1.53-1.95a.58.58,0,0,1,.52-.25.56.56,0,0,1,.61.56.6.6,0,0,1-.17.4Z" fill="#00a885"/><path d="M58.83,6.34h2.74a.56.56,0,0,1,0,1.12h-3.4a.66.66,0,0,1-.66-.66V2.62A.66.66,0,0,1,58.17,2h3.27a.56.56,0,1,1,0,1.12H58.83v1h1.51a.56.56,0,0,1,0,1.12H58.83Z" fill="#00a885"/><path d="M68.84,6.69A.79.79,0,0,1,68.9,7a.61.61,0,0,1-1.18.2l-.45-.9H64.9l-.45.9A.61.61,0,0,1,63.27,7a.77.77,0,0,1,.07-.27l2.2-4.47a.56.56,0,0,1,.55-.35.57.57,0,0,1,.55.35Zm-3.5-1.43h1.49l-.74-1.73Z" fill="#00a885"/><path d="M71.6,6.89a.66.66,0,1,1-1.32,0V2.62A.66.66,0,0,1,70.94,2h2.33c1.57,0,2.23.77,2.23,1.73a1.54,1.54,0,0,1-1,1.52l.78,1.43a.59.59,0,0,1,.09.31.6.6,0,0,1-.62.6.58.58,0,0,1-.56-.31l-1-1.85H71.6ZM73.47,3H71.6V4.32h1.87a.66.66,0,0,0,.74-.65A.65.65,0,0,0,73.47,3Z" fill="#00a885"/><path d="M79.42,7.59A3.58,3.58,0,0,1,77.25,7a.69.69,0,0,1-.35-.55.56.56,0,0,1,.57-.55.76.76,0,0,1,.44.15,2.47,2.47,0,0,0,1.49.48c.65,0,1.08-.21,1.08-.6s-.53-.53-1-.63c-2-.44-2.48-.89-2.48-1.84s.87-1.62,2.46-1.62a3.76,3.76,0,0,1,1.67.39.63.63,0,0,1,.43.58.5.5,0,0,1-.53.5.83.83,0,0,1-.37-.09,2.83,2.83,0,0,0-1.19-.3c-.76,0-1.16.15-1.16.51s.29.4,1.18.62c1.5.37,2.27.7,2.27,1.78S80.87,7.59,79.42,7.59Z" fill="#00a885"/><path d="M89.3,7.59a2.81,2.81,0,0,1-3-2.88,3,3,0,0,1,6,0A2.81,2.81,0,0,1,89.3,7.59Zm0-1.12A1.64,1.64,0,0,0,91,4.71a1.67,1.67,0,1,0-3.34,0A1.64,1.64,0,0,0,89.3,6.47Z" fill="#00a885"/><path d="M95.22,6.89a.66.66,0,1,1-1.32,0V2.62A.66.66,0,0,1,94.57,2h3.29a.56.56,0,0,1,0,1.12H95.22v1h1.53a.56.56,0,1,1,0,1.12H95.22Z" fill="#00a885"/><path d="M106.49,1.87a.66.66,0,0,1,.66.66V5.29a2.46,2.46,0,0,1-4.77.64.81.81,0,0,1,0-.14.58.58,0,0,1,.63-.62.6.6,0,0,1,.65.51,1,1,0,0,0,1.07.81,1,1,0,0,0,1.12-1.14V2.53A.66.66,0,0,1,106.49,1.87Z" fill="#00a885"/><path d="M113.91,6.69A.79.79,0,0,1,114,7a.61.61,0,0,1-1.18.2l-.45-.9H110l-.45.9a.61.61,0,0,1-1.18-.2.77.77,0,0,1,.07-.27l2.2-4.47a.56.56,0,0,1,.55-.35.57.57,0,0,1,.55.35Zm-3.5-1.43h1.49l-.74-1.73Z" fill="#00a885"/><path d="M116.67,6.89a.66.66,0,1,1-1.32,0V2.62A.66.66,0,0,1,116,2h2.22c1.57,0,2.23.78,2.23,1.74s-.66,1.72-2.23,1.72h-1.56ZM118.41,3h-1.74V4.32h1.74a.64.64,0,1,0,0-1.28Z" fill="#00a885"/><path d="M126.51,6.69a.79.79,0,0,1,.07.27.61.61,0,0,1-1.18.2l-.45-.9h-2.38l-.45.9a.61.61,0,0,1-1.18-.2.77.77,0,0,1,.07-.27l2.2-4.47a.56.56,0,0,1,.55-.35.57.57,0,0,1,.55.35ZM123,5.26h1.49l-.74-1.73Z" fill="#00a885"/><path d="M131.91,5.39V2.5a.63.63,0,0,1,1.25,0V6.92a.61.61,0,0,1-.63.63.59.59,0,0,1-.48-.22l-2.85-3.23V6.92a.63.63,0,1,1-1.25,0V2.5a.6.6,0,0,1,.63-.63.67.67,0,0,1,.5.24Z" fill="#00a885"/><path d="M136.47,6.34h2.74a.56.56,0,0,1,0,1.12h-3.4a.66.66,0,0,1-.66-.66V2.62a.66.66,0,0,1,.66-.66h3.27a.56.56,0,1,1,0,1.12h-2.61v1H138a.56.56,0,0,1,0,1.12h-1.51Z" fill="#00a885"/><path d="M143.53,7.59A3.58,3.58,0,0,1,141.36,7a.69.69,0,0,1-.35-.55.56.56,0,0,1,.57-.55A.76.76,0,0,1,142,6a2.47,2.47,0,0,0,1.49.48c.65,0,1.08-.21,1.08-.6s-.53-.53-1-.63c-2-.44-2.48-.89-2.48-1.84s.87-1.62,2.46-1.62a3.76,3.76,0,0,1,1.67.39.63.63,0,0,1,.43.58.5.5,0,0,1-.53.5.83.83,0,0,1-.37-.09,2.83,2.83,0,0,0-1.19-.3c-.76,0-1.16.15-1.16.51s.29.4,1.18.62c1.5.37,2.27.7,2.27,1.78S145,7.59,143.53,7.59Z" fill="#00a885"/><path d="M148.85,6.34h2.74a.56.56,0,0,1,0,1.12h-3.4a.66.66,0,0,1-.66-.66V2.62A.66.66,0,0,1,148.2,2h3.27a.56.56,0,1,1,0,1.12h-2.61v1h1.51a.56.56,0,0,1,0,1.12h-1.51Z" fill="#00a885"/><path d="M161.48,8.36a.47.47,0,0,1-.45-.25l-.42-.67a3.52,3.52,0,0,1-1,.15,2.81,2.81,0,0,1-3-2.88,3,3,0,0,1,6,0A2.8,2.8,0,0,1,161.49,7l.4.63a.51.51,0,0,1,.07.25A.47.47,0,0,1,161.48,8.36Zm-1.91-1.89a1.64,1.64,0,0,0,.41,0l-.33-.54a.49.49,0,0,1-.08-.26.47.47,0,0,1,.49-.48.43.43,0,0,1,.42.23l.34.55a1.84,1.84,0,0,0,.42-1.21,1.67,1.67,0,1,0-3.34,0A1.64,1.64,0,0,0,159.57,6.47Z" fill="#00a885"/><path d="M168.08,2.53a.66.66,0,0,1,1.32,0V5.2a2.65,2.65,0,0,1-5.28,0V2.53a.66.66,0,1,1,1.32,0V5.3a1.33,1.33,0,0,0,2.64,0Z" fill="#00a885"/><path d="M176.15,6.69a.77.77,0,0,1,.07.27.61.61,0,0,1-1.18.2l-.45-.9h-2.38l-.45.9a.61.61,0,0,1-1.18-.2.77.77,0,0,1,.07-.27l2.2-4.47a.56.56,0,0,1,.55-.35.57.57,0,0,1,.55.35Zm-3.5-1.43h1.49l-.74-1.73Z" fill="#00a885"/><path d="M181.33,6.34a.56.56,0,0,1,0,1.12h-3.08a.66.66,0,0,1-.66-.66V2.53a.66.66,0,1,1,1.32,0V6.34Z" fill="#00a885"/><path d="M183.23,2.53a.66.66,0,0,1,1.32,0V6.89a.66.66,0,0,1-1.32,0Z" fill="#00a885"/><path d="M189.18,6.89a.66.66,0,0,1-1.32,0V3.08H186.4a.56.56,0,1,1,0-1.12h4.25a.56.56,0,1,1,0,1.12h-1.46Z" fill="#00a885"/><path d="M195.41,5.18V6.89a.66.66,0,1,1-1.32,0V5.18l-1.83-2.35a.6.6,0,0,1-.17-.4.56.56,0,0,1,.61-.56.61.61,0,0,1,.52.25l1.53,1.95,1.53-1.95a.58.58,0,0,1,.52-.25.56.56,0,0,1,.61.56.6.6,0,0,1-.17.4Z" fill="#00a885"/></svg>