<svg id="Layer_1" data-name="Layer 1" xmlns="http://www.w3.org/2000/svg" viewBox="0 0 15.67 7.72"><title>_</title><path d="M7.75,6.86a.78.78,0,1,1-1.57,0V6.49A2.93,2.93,0,0,1,3.73,7.72,3.61,3.61,0,0,1,0,3.86,3.75,3.75,0,0,1,3.89,0,3.61,3.61,0,0,1,7.75,3.86ZM3.88,1.35A2.36,2.36,0,0,0,1.58,3.86,2.24,2.24,0,0,0,3.88,6.37,2.37,2.37,0,0,0,6.17,3.86,2.27,2.27,0,0,0,3.88,1.35Z" fill="#fff"/><path d="M12.62,7.72a4.39,4.39,0,0,1-2.68-.86A.84.84,0,0,1,9.6,6.2a.56.56,0,0,1,.61-.56,1,1,0,0,1,.62.24,3.18,3.18,0,0,0,1.91.66c.91,0,1.4-.34,1.4-.86s-.47-.79-1.65-1.11C10.41,4,9.65,3.3,9.65,2.09S10.82,0,12.64,0a5,5,0,0,1,2.09.47c.46.22.78.49.78.83a.55.55,0,0,1-.61.59,1.54,1.54,0,0,1-.69-.24,3.31,3.31,0,0,0-1.6-.39c-.84,0-1.42.22-1.42.81s.51.76,1.72,1.11c1.82.52,2.76,1,2.76,2.38S14.63,7.72,12.62,7.72Z" fill="#fff"/></svg>