<svg xmlns="http://www.w3.org/2000/svg" viewBox="0 0 199.21 7.98"><title>text</title><g id="Layer_2" data-name="Layer 2"><path d="M0,1A.91.91,0,1,1,1.83,1V7A.91.91,0,0,1,0,7Z" fill="#00a887"/><path d="M10,4.93v-4a.87.87,0,1,1,1.74,0V7.05a.84.84,0,0,1-.87.87.82.82,0,0,1-.67-.3L6.27,3.14V7.05a.87.87,0,0,1-1.74,0V.93A.83.83,0,0,1,5.41.06.93.93,0,0,1,6.09.4Z" fill="#00a887"/><path d="M19.91,4.93v-4a.87.87,0,1,1,1.74,0V7.05a.84.84,0,0,1-.87.87.82.82,0,0,1-.67-.3L16.16,3.14V7.05a.87.87,0,0,1-1.74,0V.93a.83.83,0,0,1,.87-.87A.93.93,0,0,1,16,.4Z" fill="#00a887"/><path d="M27.92,8a3.9,3.9,0,0,1-4.14-4,3.9,3.9,0,0,1,4.14-4,3.9,3.9,0,0,1,4.14,4A3.9,3.9,0,0,1,27.92,8Zm0-1.55A2.27,2.27,0,0,0,30.23,4,2.32,2.32,0,1,0,25.6,4,2.27,2.27,0,0,0,27.92,6.43Z" fill="#00a887"/><path d="M39.21.61A.74.74,0,0,1,40,.06a.78.78,0,0,1,.88.78,1.09,1.09,0,0,1-.12.49L37.8,7.4a.86.86,0,0,1-1.58,0L33.29,1.32a1.1,1.1,0,0,1-.12-.49.78.78,0,0,1,.88-.78.74.74,0,0,1,.75.55L37,5.42Z" fill="#00a887"/><path d="M48.82,6.73a1.08,1.08,0,0,1,.09.38.85.85,0,0,1-1.63.27l-.62-1.25H43.37l-.62,1.25a.85.85,0,0,1-1.63-.27,1.07,1.07,0,0,1,.09-.38l3-6.18A.77.77,0,0,1,45,.06a.79.79,0,0,1,.76.49ZM44,4.75H46L45,2.36Z" fill="#00a887"/><path d="M53.59,7a.91.91,0,0,1-1.83,0V1.74h-2a.78.78,0,1,1,0-1.55h5.88a.78.78,0,0,1,0,1.55h-2Z" fill="#00a887"/><path d="M58.11,1a.91.91,0,1,1,1.83,0V7a.91.91,0,0,1-1.83,0Z" fill="#00a887"/><path d="M67.86.61a.74.74,0,0,1,.75-.55.78.78,0,0,1,.88.78,1.09,1.09,0,0,1-.12.49L66.44,7.4a.86.86,0,0,1-1.58,0L61.94,1.32a1.1,1.1,0,0,1-.12-.49A.78.78,0,0,1,62.7.06a.74.74,0,0,1,.75.55l2.21,4.81Z" fill="#00a887"/><path d="M73.15,6.24h3.79a.78.78,0,0,1,0,1.55H72.23a.92.92,0,0,1-.91-.91V1.1a.92.92,0,0,1,.91-.91h4.52a.78.78,0,1,1,0,1.55H73.15V3.15h2.09a.78.78,0,0,1,0,1.55H73.15Z" fill="#00a887"/><path d="M86,7a.91.91,0,0,1-1.83,0V1.1a.92.92,0,0,1,.91-.91h4.55a.78.78,0,0,1,0,1.55H86V3.15h2.12a.78.78,0,0,1,0,1.55H86Z" fill="#00a887"/><path d="M97.25,6.24a.78.78,0,1,1,0,1.55H93a.92.92,0,0,1-.91-.91V1A.91.91,0,1,1,93.9,1V6.24Z" fill="#00a887"/><path d="M107,6.73a1.08,1.08,0,0,1,.09.38.85.85,0,0,1-1.63.27l-.62-1.25h-3.29l-.62,1.25a.85.85,0,0,1-1.63-.27,1.07,1.07,0,0,1,.09-.38l3-6.18a.77.77,0,0,1,.76-.49.79.79,0,0,1,.76.49Zm-4.84-2h2.06l-1-2.39Z" fill="#00a887"/><path d="M113.38.61a.74.74,0,0,1,.75-.55.78.78,0,0,1,.88.78,1.09,1.09,0,0,1-.12.49L112,7.4a.86.86,0,0,1-1.58,0l-2.92-6.08a1.1,1.1,0,0,1-.12-.49.78.78,0,0,1,.88-.78.74.74,0,0,1,.75.55l2.21,4.81Z" fill="#00a887"/><path d="M120.26,8a3.9,3.9,0,0,1-4.14-4,4.15,4.15,0,0,1,8.28,0A3.9,3.9,0,0,1,120.26,8Zm0-1.55A2.27,2.27,0,0,0,122.57,4a2.32,2.32,0,1,0-4.63,0A2.27,2.27,0,0,0,120.26,6.43Z" fill="#00a887"/><path d="M128.36,7a.91.91,0,0,1-1.83,0V1.1a.92.92,0,0,1,.91-.91h3.23c2.18,0,3.09,1.07,3.09,2.39a2.13,2.13,0,0,1-1.45,2.1l1.08,2a.83.83,0,0,1-.73,1.26.8.8,0,0,1-.78-.43l-1.4-2.56h-2.13ZM131,1.67h-2.59V3.46H131a.91.91,0,0,0,1-.9A.9.9,0,0,0,131,1.67Z" fill="#00a887"/><path d="M143.36,8a5,5,0,0,1-3-.85,1,1,0,0,1-.49-.76.77.77,0,0,1,.79-.76,1.05,1.05,0,0,1,.61.21,3.41,3.41,0,0,0,2.06.67c.9,0,1.49-.29,1.49-.84s-.73-.73-1.34-.87c-2.73-.61-3.43-1.23-3.43-2.54S141.26,0,143.47,0a5.22,5.22,0,0,1,2.31.53.87.87,0,0,1,.59.81.69.69,0,0,1-.73.68,1.16,1.16,0,0,1-.52-.12,3.91,3.91,0,0,0-1.64-.41c-1.05,0-1.6.21-1.6.7s.4.55,1.63.85c2.07.52,3.14,1,3.14,2.47S145.37,8,143.36,8Z" fill="#00a887"/><path d="M152.3,4.64V7a.91.91,0,0,1-1.83,0V4.64l-2.53-3.26a.83.83,0,0,1-.23-.55.77.77,0,0,1,.84-.78.84.84,0,0,1,.72.35l2.12,2.69L153.51.41a.81.81,0,0,1,.72-.35.77.77,0,0,1,.84.78.83.83,0,0,1-.23.55Z" fill="#00a887"/><path d="M159.69,8a5,5,0,0,1-3-.85,1,1,0,0,1-.49-.76A.77.77,0,0,1,157,5.6a1.06,1.06,0,0,1,.61.21,3.41,3.41,0,0,0,2.06.67c.9,0,1.49-.29,1.49-.84s-.73-.73-1.34-.87c-2.73-.61-3.43-1.23-3.43-2.54S157.59,0,159.8,0a5.22,5.22,0,0,1,2.32.53.87.87,0,0,1,.59.81A.69.69,0,0,1,162,2a1.16,1.16,0,0,1-.52-.12,3.91,3.91,0,0,0-1.64-.41c-1.05,0-1.6.21-1.6.7s.4.55,1.63.85c2.07.52,3.14,1,3.14,2.47S161.7,8,159.69,8Z" fill="#00a887"/><path d="M168.67,7a.91.91,0,0,1-1.83,0V1.74h-2a.78.78,0,1,1,0-1.55h5.88a.78.78,0,1,1,0,1.55h-2Z" fill="#00a887"/><path d="M174.95,6.24h3.79a.78.78,0,0,1,0,1.55H174a.92.92,0,0,1-.91-.91V1.1A.92.92,0,0,1,174,.18h4.52a.78.78,0,1,1,0,1.55h-3.61V3.15H177a.78.78,0,0,1,0,1.55h-2.09Z" fill="#00a887"/><path d="M190.15,7.05a.85.85,0,1,1-1.71,0V3.9L186.6,7.43a.84.84,0,0,1-1.52,0L183.23,3.9V7.05a.85.85,0,1,1-1.71,0V.84a.78.78,0,0,1,.85-.78.87.87,0,0,1,.82.5l2.63,5.07L188.47.56a.87.87,0,0,1,.82-.5.78.78,0,0,1,.85.78Z" fill="#00a887"/><path d="M195.92,8a5,5,0,0,1-3-.85,1,1,0,0,1-.49-.76.77.77,0,0,1,.79-.76,1.06,1.06,0,0,1,.61.21,3.41,3.41,0,0,0,2.06.67c.9,0,1.49-.29,1.49-.84s-.73-.73-1.34-.87c-2.73-.61-3.43-1.23-3.43-2.54S193.82,0,196,0a5.22,5.22,0,0,1,2.32.53.87.87,0,0,1,.59.81.69.69,0,0,1-.73.68,1.16,1.16,0,0,1-.52-.12A3.91,3.91,0,0,0,196,1.49c-1.05,0-1.6.21-1.6.7s.4.55,1.63.85c2.07.52,3.14,1,3.14,2.47S197.93,8,195.92,8Z" fill="#00a887"/></g></svg>