<svg xmlns="http://www.w3.org/2000/svg" viewBox="0 0 168.7 9.05"><title>text</title><g id="Layer_2" data-name="Layer 2"><path d="M5.48,1A.91.91,0,1,1,7.31,1v3.7c0,2-1.37,3.3-3.66,3.3S0,6.67,0,4.67V1A.91.91,0,1,1,1.83,1V4.81A1.61,1.61,0,0,0,3.66,6.43,1.61,1.61,0,0,0,5.48,4.81Z" fill="#00a887"/><path d="M15.41,4.93v-4a.87.87,0,1,1,1.74,0V7.05a.84.84,0,0,1-.87.87.82.82,0,0,1-.67-.3L11.67,3.14V7.05a.87.87,0,0,1-1.74,0V.93A.83.83,0,0,1,10.8.06a.93.93,0,0,1,.69.34Z" fill="#00a887"/><path d="M19.86,1a.91.91,0,1,1,1.83,0V7a.91.91,0,0,1-1.83,0Z" fill="#00a887"/><path d="M30.66,9A.64.64,0,0,1,30,8.7l-.58-.93A4.85,4.85,0,0,1,28,8a3.9,3.9,0,0,1-4.14-4A3.9,3.9,0,0,1,28,0a3.9,3.9,0,0,1,4.14,4,3.88,3.88,0,0,1-1.48,3.15l.55.87a.71.71,0,0,1,.09.35A.66.66,0,0,1,30.66,9ZM28,6.43a2.29,2.29,0,0,0,.56-.06l-.46-.75A.67.67,0,0,1,28,5.25a.65.65,0,0,1,.69-.67.6.6,0,0,1,.58.32l.47.76A2.53,2.53,0,0,0,30.32,4a2.32,2.32,0,1,0-4.63,0A2.27,2.27,0,0,0,28,6.43Z" fill="#00a887"/><path d="M39.72,1a.91.91,0,1,1,1.83,0v3.7c0,2-1.37,3.3-3.66,3.3s-3.66-1.31-3.66-3.3V1a.91.91,0,1,1,1.83,0V4.81a1.61,1.61,0,0,0,1.83,1.61,1.61,1.61,0,0,0,1.83-1.61Z" fill="#00a887"/><path d="M46,6.24h3.79a.78.78,0,0,1,0,1.55H45.08a.92.92,0,0,1-.91-.91V1.1a.92.92,0,0,1,.91-.91H49.6a.78.78,0,0,1,0,1.55H46V3.15h2.09a.78.78,0,0,1,0,1.55H46Z" fill="#00a887"/><path d="M57.11,1a.91.91,0,1,1,1.83,0V7a.91.91,0,0,1-1.83,0Z" fill="#00a887"/><path d="M67.13,4.93v-4a.87.87,0,1,1,1.74,0V7.05a.84.84,0,0,1-.87.87.82.82,0,0,1-.67-.3L63.39,3.14V7.05a.87.87,0,0,1-1.74,0V.93a.83.83,0,0,1,.87-.87.93.93,0,0,1,.69.34Z" fill="#00a887"/><path d="M75.76,3.62h2.33a.72.72,0,0,1,.75.75v1.8a.7.7,0,0,1-.23.53A4.73,4.73,0,0,1,75.31,8C72.36,8,71,6.17,71,4c0-2.48,1.69-4,4.31-4a4.38,4.38,0,0,1,2.83,1,.79.79,0,0,1,.29.58.78.78,0,0,1-.82.76A1,1,0,0,1,77,2.13a2.89,2.89,0,0,0-1.72-.56A2.27,2.27,0,0,0,72.83,4a2.32,2.32,0,0,0,2.53,2.5A3,3,0,0,0,77.08,6V5.12H75.76a.75.75,0,0,1,0-1.49Z" fill="#00a887"/><path d="M82.87,7A.91.91,0,0,1,81,7V1.1A.92.92,0,0,1,82,.18h3.23c2.18,0,3.09,1.07,3.09,2.39a2.13,2.13,0,0,1-1.45,2.1l1.08,2a.82.82,0,0,1,.12.43.83.83,0,0,1-.85.84.8.8,0,0,1-.78-.43L85,4.93H82.87Zm2.59-5.33H82.87V3.46h2.59a.91.91,0,0,0,1-.9A.9.9,0,0,0,85.46,1.67Z" fill="#00a887"/><path d="M92.4,6.24h3.79a.78.78,0,0,1,0,1.55H91.49a.92.92,0,0,1-.91-.91V1.1a.92.92,0,0,1,.91-.91H96a.78.78,0,1,1,0,1.55H92.4V3.15h2.09a.78.78,0,0,1,0,1.55H92.4Z" fill="#00a887"/><path d="M99,1.1A.89.89,0,0,1,99.9.18h2.25c2.6,0,4.23,1.63,4.23,3.81s-1.63,3.81-4.23,3.81H99.9A.92.92,0,0,1,99,6.88Zm1.83.64V6.24h1.26A2.18,2.18,0,0,0,104.56,4a2.18,2.18,0,0,0-2.48-2.25Z" fill="#00a887"/><path d="M108.49,1a.91.91,0,1,1,1.83,0V7a.91.91,0,0,1-1.83,0Z" fill="#00a887"/><path d="M114.85,6.24h3.79a.78.78,0,0,1,0,1.55h-4.71a.92.92,0,0,1-.91-.91V1.1a.92.92,0,0,1,.91-.91h4.52a.78.78,0,1,1,0,1.55h-3.61V3.15h2.09a.78.78,0,0,1,0,1.55h-2.09Z" fill="#00a887"/><path d="M126.91,4.93v-4a.87.87,0,1,1,1.74,0V7.05a.84.84,0,0,1-.87.87.82.82,0,0,1-.67-.3l-3.94-4.48V7.05a.87.87,0,0,1-1.74,0V.93a.83.83,0,0,1,.87-.87A.93.93,0,0,1,123,.4Z" fill="#00a887"/><path d="M135,7a.91.91,0,0,1-1.83,0V1.74h-2a.78.78,0,1,1,0-1.55H137a.78.78,0,1,1,0,1.55h-2Z" fill="#00a887"/><path d="M145.75,7a.91.91,0,0,1-1.83,0V1.1a.92.92,0,0,1,.91-.91h4.55a.78.78,0,0,1,0,1.55h-3.64V3.15h2.12a.78.78,0,1,1,0,1.55h-2.12Z" fill="#00a887"/><path d="M155.19,8a3.9,3.9,0,0,1-4.14-4,4.15,4.15,0,0,1,8.28,0A3.9,3.9,0,0,1,155.19,8Zm0-1.55A2.27,2.27,0,0,0,157.51,4a2.32,2.32,0,1,0-4.63,0A2.27,2.27,0,0,0,155.19,6.43Z" fill="#00a887"/><path d="M163.3,7a.91.91,0,0,1-1.83,0V1.1a.92.92,0,0,1,.91-.91h3.23c2.18,0,3.09,1.07,3.09,2.39a2.13,2.13,0,0,1-1.45,2.1l1.08,2a.83.83,0,0,1-.73,1.26.8.8,0,0,1-.78-.43l-1.4-2.56H163.3Zm2.59-5.33H163.3V3.46h2.59a.91.91,0,0,0,1-.9A.9.9,0,0,0,165.89,1.67Z" fill="#00a887"/></g></svg>