<svg xmlns="http://www.w3.org/2000/svg" viewBox="0 0 169.66 10.45"><title>text</title><g id="Layer_2" data-name="Layer 2"><path d="M0,3.44a.91.91,0,1,1,1.83,0v6A.91.91,0,0,1,0,9.47Z" fill="#fff"/><path d="M10,7.4v-4a.87.87,0,1,1,1.74,0V9.52a.84.84,0,0,1-.87.87.82.82,0,0,1-.67-.3L6.27,5.6V9.52a.87.87,0,0,1-1.74,0V3.4a.83.83,0,0,1,.87-.87.93.93,0,0,1,.69.34Z" fill="#fff"/><path d="M18.06,9.47a.91.91,0,0,1-1.83,0V4.2h-2a.78.78,0,1,1,0-1.55h5.88a.78.78,0,1,1,0,1.55h-2Z" fill="#fff"/><path d="M24.34,8.71h3.79a.78.78,0,0,1,0,1.55H23.42a.92.92,0,0,1-.91-.91V3.56a.92.92,0,0,1,.91-.91h4.52a.78.78,0,1,1,0,1.55H24.34V5.62h2.09a.78.78,0,0,1,0,1.55H24.34Z" fill="#fff"/><path d="M36.4,7.4v-4a.87.87,0,1,1,1.74,0V9.52a.84.84,0,0,1-.87.87.82.82,0,0,1-.67-.3L32.65,5.6V9.52a.87.87,0,0,1-1.74,0V3.4a.83.83,0,0,1,.87-.87.93.93,0,0,1,.69.34Z" fill="#fff"/><path d="M43.91,10.45a5,5,0,0,1-3-.85,1,1,0,0,1-.49-.76.77.77,0,0,1,.79-.76,1.06,1.06,0,0,1,.61.21A3.41,3.41,0,0,0,43.88,9c.9,0,1.49-.29,1.49-.84s-.73-.73-1.34-.87C41.3,6.64,40.6,6,40.6,4.71S41.8,2.47,44,2.47A5.22,5.22,0,0,1,46.33,3a.87.87,0,0,1,.59.81.69.69,0,0,1-.73.68,1.16,1.16,0,0,1-.52-.12A3.91,3.91,0,0,0,44,4c-1.05,0-1.6.21-1.6.7s.4.55,1.63.85C46.13,6,47.2,6.49,47.2,8S45.92,10.45,43.91,10.45Z" fill="#fff"/><path d="M49.37,3.44a.91.91,0,1,1,1.83,0v6a.91.91,0,0,1-1.83,0Z" fill="#fff"/><path d="M55.74,9.47a.91.91,0,0,1-1.83,0V3.56a.92.92,0,0,1,.91-.91h4.55a.78.78,0,0,1,0,1.55H55.74V5.62h2.12a.78.78,0,0,1,0,1.55H55.74Z" fill="#fff"/><path d="M65.67,7.11V9.47a.91.91,0,0,1-1.83,0V7.11L61.31,3.85a.83.83,0,0,1-.23-.55.77.77,0,0,1,.84-.78.84.84,0,0,1,.72.35l2.12,2.69,2.12-2.69a.81.81,0,0,1,.72-.35.77.77,0,0,1,.84.78.83.83,0,0,1-.23.55Z" fill="#fff"/><path d="M77.73,7.11V9.47a.91.91,0,0,1-1.83,0V7.11L73.38,3.85a.83.83,0,0,1-.23-.55A.77.77,0,0,1,74,2.53a.84.84,0,0,1,.72.35l2.12,2.69,2.12-2.69a.81.81,0,0,1,.72-.35.77.77,0,0,1,.84.78.83.83,0,0,1-.23.55Z" fill="#fff"/><path d="M85.55,10.45a3.9,3.9,0,0,1-4.14-4,4.15,4.15,0,0,1,8.28,0A3.9,3.9,0,0,1,85.55,10.45Zm0-1.55a2.27,2.27,0,0,0,2.31-2.44,2.32,2.32,0,1,0-4.63,0A2.27,2.27,0,0,0,85.55,8.89Z" fill="#fff"/><path d="M97.26,3.44a.91.91,0,1,1,1.83,0v3.7c0,2-1.37,3.3-3.66,3.3s-3.66-1.31-3.66-3.3V3.44a.91.91,0,1,1,1.83,0V7.28a1.84,1.84,0,0,0,3.65,0Z" fill="#fff"/><path d="M103.53,9.47a.91.91,0,0,1-1.83,0V3.56a.92.92,0,0,1,.91-.91h3.23c2.18,0,3.09,1.07,3.09,2.39a2.13,2.13,0,0,1-1.45,2.1l1.08,2a.83.83,0,0,1-.73,1.26.8.8,0,0,1-.78-.43l-1.4-2.56h-2.13Zm2.59-5.33h-2.59V5.92h2.59a.91.91,0,0,0,1-.9A.9.9,0,0,0,106.12,4.14Z" fill="#fff"/><path d="M118.53,10.45a5,5,0,0,1-3-.85,1,1,0,0,1-.49-.76.77.77,0,0,1,.79-.76,1.05,1.05,0,0,1,.61.21A3.41,3.41,0,0,0,118.5,9c.9,0,1.49-.29,1.49-.84s-.73-.73-1.34-.87c-2.73-.61-3.43-1.23-3.43-2.54s1.2-2.24,3.41-2.24A5.22,5.22,0,0,1,121,3a.87.87,0,0,1,.59.81.69.69,0,0,1-.73.68,1.16,1.16,0,0,1-.52-.12A3.91,3.91,0,0,0,118.66,4c-1.05,0-1.6.21-1.6.7s.4.55,1.63.85c2.07.52,3.14,1,3.14,2.47S120.54,10.45,118.53,10.45Z" fill="#fff"/><path d="M125.78,8.71h3.79a.78.78,0,0,1,0,1.55h-4.71a.92.92,0,0,1-.91-.91V3.56a.92.92,0,0,1,.91-.91h4.52a.78.78,0,1,1,0,1.55h-3.61V5.62h2.09a.78.78,0,0,1,0,1.55h-2.09Z" fill="#fff"/><path d="M137.85,7.4v-4a.87.87,0,1,1,1.74,0V9.52a.84.84,0,0,1-.87.87.82.82,0,0,1-.67-.3L134.1,5.6V9.52a.87.87,0,0,1-1.74,0V3.4a.83.83,0,0,1,.87-.87.93.93,0,0,1,.69.34Z" fill="#fff"/><path d="M145.35,10.45a5,5,0,0,1-3-.85,1,1,0,0,1-.49-.76.77.77,0,0,1,.79-.76,1.05,1.05,0,0,1,.61.21,3.41,3.41,0,0,0,2.06.67c.9,0,1.49-.29,1.49-.84s-.73-.73-1.34-.87C142.75,6.64,142,6,142,4.71s1.2-2.24,3.41-2.24a5.22,5.22,0,0,1,2.31.53.87.87,0,0,1,.59.81.69.69,0,0,1-.73.68,1.16,1.16,0,0,1-.52-.12A3.91,3.91,0,0,0,145.48,4c-1.05,0-1.6.21-1.6.7s.4.55,1.63.85c2.07.52,3.14,1,3.14,2.47S147.36,10.45,145.35,10.45Z" fill="#fff"/><path d="M152.6,8.71h3.79a.78.78,0,0,1,0,1.55h-4.71a.92.92,0,0,1-.91-.91V3.56a.92.92,0,0,1,.91-.91h4.52a.78.78,0,1,1,0,1.55H152.6V5.62h2.09a.78.78,0,0,1,0,1.55H152.6Z" fill="#fff"/><path d="M162.21,10.45a5,5,0,0,1-3-.85,1,1,0,0,1-.49-.76.77.77,0,0,1,.79-.76,1.06,1.06,0,0,1,.61.21,3.41,3.41,0,0,0,2.06.67c.9,0,1.49-.29,1.49-.84s-.73-.73-1.34-.87c-2.73-.61-3.43-1.23-3.43-2.54s1.2-2.24,3.41-2.24a5.22,5.22,0,0,1,2.32.53.87.87,0,0,1,.59.81.69.69,0,0,1-.73.68,1.16,1.16,0,0,1-.52-.12A3.91,3.91,0,0,0,162.33,4c-1.05,0-1.6.21-1.6.7s.4.55,1.63.85c2.07.52,3.14,1,3.14,2.47S164.22,10.45,162.21,10.45Z" fill="#fff"/><path d="M168.61,10.37a1.05,1.05,0,0,1-1.05-1.05,1.05,1.05,0,0,1,2.1,0A1.05,1.05,0,0,1,168.61,10.37Zm.44-3.53a.44.44,0,0,1-.88,0l-.47-2.38V.91a.91.91,0,0,1,1.83,0V4.46Z" fill="#fff"/></g></svg>