<svg xmlns="http://www.w3.org/2000/svg" viewBox="0 0 200.07 30.8"><title>flags</title><g id="Layer_2" data-name="Layer 2"><polygon points="200.07 30.8 0 30.8 8.11 15.4 0 0 200.07 0 191.96 15.4 200.07 30.8" fill="#fff"/><path d="M30,17.72H34.2a.87.87,0,0,1,0,1.74H28.94a1,1,0,0,1-1-1V12a1,1,0,0,1,1-1H34a.87.87,0,1,1,0,1.74H30v1.58H32.3a.87.87,0,0,1,0,1.74H30Z" fill="#00a887"/><path d="M43.53,16.25V11.77a1,1,0,0,1,1.94,0v6.85a.94.94,0,0,1-1,1,.93.93,0,0,1-.75-.34l-4.41-5v4.38a1,1,0,0,1-1.94,0V11.77a.93.93,0,0,1,1-1,1,1,0,0,1,.77.37Z" fill="#00a887"/><path d="M54.77,16H50.58v2.61a1,1,0,1,1-2,0V11.82a1,1,0,0,1,2,0v2.35h4.19V11.82a1,1,0,0,1,2,0v6.74a1,1,0,1,1-2,0Z" fill="#00a887"/><path d="M67.69,18.26a1.21,1.21,0,0,1,.1.43A.94.94,0,0,1,66,19l-.7-1.4H61.59l-.7,1.4a.94.94,0,0,1-1.82-.31,1.21,1.21,0,0,1,.1-.43l3.41-6.91a.86.86,0,0,1,.85-.54.88.88,0,0,1,.85.54ZM62.27,16h2.3l-1.14-2.67Z" fill="#00a887"/><path d="M76.18,16.25V11.77a1,1,0,0,1,1.94,0v6.85a.94.94,0,0,1-1,1,.93.93,0,0,1-.75-.34l-4.41-5v4.38a1,1,0,0,1-1.94,0V11.77a.93.93,0,0,1,1-1,1,1,0,0,1,.77.37Z" fill="#00a887"/><path d="M82.59,15.2a2.55,2.55,0,0,0,2.62,2.72,2.52,2.52,0,0,0,1.91-.78,1,1,0,0,1,.8-.42.9.9,0,0,1,1,.88,1.07,1.07,0,0,1-.32.7,4.44,4.44,0,0,1-3.34,1.36,4.36,4.36,0,0,1-4.67-4.46,4.36,4.36,0,0,1,4.67-4.46,4.44,4.44,0,0,1,3.34,1.36,1.07,1.07,0,0,1,.32.7.9.9,0,0,1-1,.89,1,1,0,0,1-.8-.43,2.52,2.52,0,0,0-1.91-.78A2.55,2.55,0,0,0,82.59,15.2Z" fill="#00a887"/><path d="M93.39,17.72h4.24a.87.87,0,0,1,0,1.74H92.36a1,1,0,0,1-1-1V12a1,1,0,0,1,1-1h5.06a.87.87,0,1,1,0,1.74h-4v1.58h2.33a.87.87,0,1,1,0,1.74H93.39Z" fill="#00a887"/><path d="M100.82,12a1,1,0,0,1,1-1h2.52c2.91,0,4.73,1.82,4.73,4.26s-1.82,4.26-4.73,4.26h-2.52a1,1,0,0,1-1-1Zm2,.71v5h1.41c1.79,0,2.78-1,2.78-2.52s-1-2.52-2.78-2.52Z" fill="#00a887"/><path d="M118.63,18.57a1,1,0,1,1-2,0V12a1,1,0,0,1,1-1h5.09a.87.87,0,1,1,0,1.74h-4.07v1.58H121A.87.87,0,1,1,121,16h-2.37Z" fill="#00a887"/><path d="M131.24,17.72a.87.87,0,0,1,0,1.74h-4.77a1,1,0,0,1-1-1V11.82a1,1,0,0,1,2,0v5.89Z" fill="#00a887"/><path d="M142.19,18.26a1.21,1.21,0,0,1,.1.43.94.94,0,0,1-1.82.31l-.7-1.4h-3.68l-.7,1.4a.94.94,0,0,1-1.82-.31,1.21,1.21,0,0,1,.1-.43l3.41-6.91a.86.86,0,0,1,.85-.54.88.88,0,0,1,.85.54ZM136.77,16h2.3l-1.14-2.67Z" fill="#00a887"/><path d="M149.43,11.42a.82.82,0,0,1,.83-.61.88.88,0,0,1,1,.87,1.21,1.21,0,0,1-.14.54L147.85,19a1,1,0,0,1-1.77,0l-3.27-6.79a1.21,1.21,0,0,1-.14-.54.88.88,0,0,1,1-.87.82.82,0,0,1,.83.61L147,16.8Z" fill="#00a887"/><path d="M157.21,19.66a4.36,4.36,0,0,1-4.63-4.46,4.64,4.64,0,0,1,9.26,0A4.36,4.36,0,0,1,157.21,19.66Zm0-1.74a2.54,2.54,0,0,0,2.59-2.72,2.59,2.59,0,1,0-5.18,0A2.54,2.54,0,0,0,157.21,17.92Z" fill="#00a887"/><path d="M166.35,18.57a1,1,0,1,1-2,0V12a1,1,0,0,1,1-1h3.61c2.44,0,3.46,1.19,3.46,2.67A2.38,2.38,0,0,1,170.77,16L172,18.18a.92.92,0,0,1,.14.48.93.93,0,0,1-1,.94.9.9,0,0,1-.87-.48l-1.57-2.86h-2.38Zm2.89-6h-2.89v2h2.89a1,1,0,0,0,1.14-1A1,1,0,0,0,169.24,12.61Z" fill="#00a887"/></g></svg>