<svg id="Layer_1" data-name="Layer 1" xmlns="http://www.w3.org/2000/svg" viewBox="0 0 100.97 16.62"><title>_</title><path d="M10.28,3.06H2.94V6.82H7a1.37,1.37,0,0,1,1.35,1.4A1.35,1.35,0,0,1,7,9.58H2.94v5.47a1.46,1.46,0,0,1-1.47,1.47A1.46,1.46,0,0,1,0,15.05V1.76A1.46,1.46,0,0,1,1.47.29h8.81a1.36,1.36,0,0,1,1.37,1.37A1.39,1.39,0,0,1,10.28,3.06Z" fill="#fff"/><path d="M17.39,16.33a1.5,1.5,0,0,1-1.49-1.49V1.59A1.5,1.5,0,0,1,17.39.1a1.46,1.46,0,0,1,1.44,1.49v12h7a1.37,1.37,0,0,1,1.37,1.37,1.41,1.41,0,0,1-1.37,1.4Z" fill="#fff"/><path d="M42.25,12.79H35.12l-1.37,2.94a1.3,1.3,0,0,1-1.23.79,1.36,1.36,0,0,1-1.4-1.37,1.28,1.28,0,0,1,.14-.58L37.43.87A1.27,1.27,0,0,1,38.69.1a1.24,1.24,0,0,1,1.25.77l6.16,13.7a1.28,1.28,0,0,1,.14.58,1.36,1.36,0,0,1-1.4,1.37,1.27,1.27,0,0,1-1.23-.79ZM38.69,4.09l-2.5,6.12h5Z" fill="#fff"/><path d="M62.72,2,56.78,15.73a1.38,1.38,0,0,1-1.25.79,1.32,1.32,0,0,1-1.25-.79L48.3,2a1.43,1.43,0,0,1-.12-.55A1.4,1.4,0,0,1,49.53.1,1.38,1.38,0,0,1,50.8.89l4.7,11.2L60.24.89A1.35,1.35,0,0,1,61.47.1a1.37,1.37,0,0,1,1.37,1.37A1.65,1.65,0,0,1,62.72,2Z" fill="#fff"/><path d="M74.17,16.62a8.13,8.13,0,0,1-8.24-8.31,8.24,8.24,0,1,1,16.47,0A8.13,8.13,0,0,1,74.17,16.62Zm0-14c-3.28,0-5.27,2.6-5.27,5.66S70.9,14,74.17,14s5.27-2.6,5.27-5.66S77.45,2.65,74.17,2.65Z" fill="#fff"/><path d="M101,15.05a1.46,1.46,0,0,1-1.47,1.47,1.32,1.32,0,0,1-1.3-.79l-2.82-5.8H90.55v5.13a1.47,1.47,0,1,1-2.94,0V1.76A1.46,1.46,0,0,1,89.08.29h6.19c4,0,5.71,2,5.71,4.82a4.38,4.38,0,0,1-2.65,4.29l2.48,5A1.44,1.44,0,0,1,101,15.05ZM95.68,3H90.55V7.39h5.13A2.2,2.2,0,0,0,98,5.13,2.13,2.13,0,0,0,95.68,3Z" fill="#fff"/></svg>