<svg xmlns="http://www.w3.org/2000/svg" viewBox="0 0 200.07 30.8"><title>flags</title><g id="Layer_2" data-name="Layer 2"><polygon points="200.07 30.8 0 30.8 8.11 15.4 0 0 200.07 0 191.96 15.4 200.07 30.8" fill="#00a887"/><path d="M34.09,18.57a1,1,0,0,1-2,0V12a1,1,0,0,1,1-1h5.09a.87.87,0,1,1,0,1.74H34.09v1.58h2.37a.87.87,0,0,1,0,1.74H34.09Z" fill="#fff"/><path d="M46.71,17.72a.87.87,0,0,1,0,1.74H41.94a1,1,0,0,1-1-1V11.82a1,1,0,0,1,2,0v5.89Z" fill="#fff"/><path d="M57.65,18.26a1.21,1.21,0,0,1,.1.43.95.95,0,0,1-1.82.31l-.7-1.4H51.55l-.7,1.4A.94.94,0,0,1,49,18.69a1.21,1.21,0,0,1,.1-.43l3.41-6.91a.86.86,0,0,1,.85-.54.88.88,0,0,1,.85.54ZM52.23,16h2.3l-1.14-2.67Z" fill="#fff"/><path d="M64.9,11.41a.82.82,0,0,1,.83-.61.88.88,0,0,1,1,.87,1.21,1.21,0,0,1-.14.54L63.31,19a1,1,0,0,1-1.77,0l-3.27-6.79a1.21,1.21,0,0,1-.14-.54.88.88,0,0,1,1-.87.82.82,0,0,1,.83.61l2.47,5.38Z" fill="#fff"/><path d="M72.67,19.66A4.36,4.36,0,0,1,68,15.2a4.64,4.64,0,0,1,9.26,0A4.36,4.36,0,0,1,72.67,19.66Zm0-1.74a2.54,2.54,0,0,0,2.59-2.72,2.59,2.59,0,1,0-5.18,0A2.54,2.54,0,0,0,72.67,17.92Z" fill="#fff"/><path d="M81.81,18.57a1,1,0,0,1-2,0V12a1,1,0,0,1,1-1H84.4c2.44,0,3.46,1.19,3.46,2.67A2.38,2.38,0,0,1,86.24,16l1.21,2.21a.91.91,0,0,1,.14.48.93.93,0,0,1-1,.94.9.9,0,0,1-.87-.48L84.2,16.25H81.81Zm2.89-6H81.81v2h2.89a1,1,0,0,0,1.14-1A1,1,0,0,0,84.71,12.61Z" fill="#fff"/><path d="M98.75,19.66a5.54,5.54,0,0,1-3.35-1,1.07,1.07,0,0,1-.54-.85.86.86,0,0,1,.89-.85,1.19,1.19,0,0,1,.68.24,3.82,3.82,0,0,0,2.3.75c1,0,1.67-.32,1.67-.94s-.82-.82-1.5-1c-3-.68-3.83-1.38-3.83-2.84s1.35-2.5,3.81-2.5a5.84,5.84,0,0,1,2.59.6,1,1,0,0,1,.66.9.78.78,0,0,1-.82.77,1.31,1.31,0,0,1-.58-.14,4.38,4.38,0,0,0-1.84-.46c-1.17,0-1.79.24-1.79.78s.44.61,1.82,1c2.32.58,3.51,1.09,3.51,2.76S101,19.66,98.75,19.66Z" fill="#fff"/><path d="M108.87,18.57a1,1,0,0,1-2,0V12.68h-2.26a.87.87,0,0,1,0-1.74h6.57a.87.87,0,0,1,0,1.74h-2.26Z" fill="#fff"/><path d="M120.76,18.26a1.21,1.21,0,0,1,.1.43A.95.95,0,0,1,119,19l-.7-1.4h-3.68L114,19a.94.94,0,0,1-1.82-.31,1.21,1.21,0,0,1,.1-.43l3.41-6.91a.86.86,0,0,1,.85-.54.88.88,0,0,1,.85.54ZM115.34,16h2.3l-1.14-2.67Z" fill="#fff"/><path d="M130.46,13A2,2,0,0,1,129,14.94,2,2,0,0,1,130.94,17c0,1.29-1.06,2.45-3.42,2.45h-3.37a1,1,0,0,1-1-1V12a1,1,0,0,1,1-1h3.41C129.42,10.94,130.46,11.7,130.46,13Zm-5.3,1.17h2.3c.6,0,1-.34,1-.8s-.43-.78-1-.78h-2.25Zm0,1.67v1.92h2.49c.82,0,1.28-.39,1.28-1s-.49-1-1.31-1Z" fill="#fff"/><path d="M133.42,11.82a1,1,0,0,1,2,0v6.74a1,1,0,0,1-2,0Z" fill="#fff"/><path d="M144.36,17.72a.87.87,0,0,1,0,1.74H139.6a1,1,0,0,1-1-1V11.82a1,1,0,0,1,2,0v5.89Z" fill="#fff"/><path d="M147.38,11.82a1,1,0,1,1,2,0v6.74a1,1,0,1,1-2,0Z" fill="#fff"/><path d="M156.6,18.57a1,1,0,0,1-2,0V12.68h-2.26a.87.87,0,0,1,0-1.74h6.57a.87.87,0,0,1,0,1.74H156.6Z" fill="#fff"/><path d="M166,15.93v2.64a1,1,0,0,1-2,0V15.93l-2.83-3.64a.93.93,0,0,1-.25-.61.86.86,0,0,1,.94-.87.94.94,0,0,1,.8.39l2.37,3,2.37-3a.9.9,0,0,1,.8-.39.86.86,0,0,1,.94.87.93.93,0,0,1-.25.61Z" fill="#fff"/></g></svg>