<svg id="Layer_1" data-name="Layer 1" xmlns="http://www.w3.org/2000/svg" viewBox="0 0 180 30.85"><title>_</title><rect width="180" height="30.85" rx="8.77" ry="8.77" fill="#524b6e"/><path d="M43.79,18.27a.94.94,0,1,1,0,1.88H38.63a1.11,1.11,0,0,1-1.1-1.1V11.9a1.1,1.1,0,0,1,2.21,0v6.37Z" fill="#fff"/><path d="M49.08,18.27h4.59a.94.94,0,1,1,0,1.88H48a1.11,1.11,0,0,1-1.1-1.1V12a1.11,1.11,0,0,1,1.1-1.1h5.47a.94.94,0,1,1,0,1.88H49.08v1.71H51.6a.94.94,0,1,1,0,1.88H49.08Z" fill="#fff"/><path d="M65.58,18.86a1.29,1.29,0,0,1,.11.46,1,1,0,0,1-2,.33L63,18.14H59l-.75,1.51a1,1,0,0,1-2-.33,1.29,1.29,0,0,1,.11-.46l3.68-7.48a.94.94,0,0,1,.92-.59,1,1,0,0,1,.92.59Zm-5.86-2.39h2.49L61,13.57Z" fill="#fff"/><path d="M70.35,19.19a1.1,1.1,0,0,1-2.21,0V12a1.11,1.11,0,0,1,1.1-1.1h3.9c2.63,0,3.74,1.29,3.74,2.89a2.57,2.57,0,0,1-1.75,2.54l1.31,2.39a1,1,0,0,1,.15.52,1,1,0,0,1-1,1,1,1,0,0,1-.94-.52l-1.69-3.09H70.35Zm3.13-6.45H70.35V14.9h3.13a1.11,1.11,0,0,0,1.23-1.09A1.09,1.09,0,0,0,73.48,12.74Z" fill="#fff"/><path d="M86.39,16.68V11.84a1,1,0,0,1,2.1,0v7.4a1,1,0,0,1-1,1.05,1,1,0,0,1-.81-.37l-4.77-5.41v4.73a1,1,0,1,1-2.1,0v-7.4a1,1,0,0,1,1-1,1.12,1.12,0,0,1,.83.41Z" fill="#fff"/><path d="M107.75,19.24a1,1,0,1,1-2.06,0V15.43l-2.23,4.27a1,1,0,0,1-1.84,0l-2.23-4.27v3.81a1,1,0,1,1-2.06,0V11.73a1,1,0,0,1,1-.94,1.05,1.05,0,0,1,1,.61l3.19,6.13,3.19-6.13a1.05,1.05,0,0,1,1-.61,1,1,0,0,1,1,.94Z" fill="#fff"/><path d="M115.43,20.37a4.71,4.71,0,0,1-5-4.82,5,5,0,0,1,10,0A4.71,4.71,0,0,1,115.43,20.37Zm0-1.88a2.75,2.75,0,0,0,2.8-2.95,2.8,2.8,0,1,0-5.6,0A2.75,2.75,0,0,0,115.43,18.49Z" fill="#fff"/><path d="M125.32,19.19a1.1,1.1,0,1,1-2.21,0V12a1.11,1.11,0,0,1,1.1-1.1h3.9c2.63,0,3.74,1.29,3.74,2.89a2.57,2.57,0,0,1-1.75,2.54l1.31,2.39a1,1,0,0,1,.15.52,1,1,0,0,1-1,1,1,1,0,0,1-.94-.52l-1.69-3.09h-2.58Zm3.13-6.45h-3.13V14.9h3.13a1.11,1.11,0,0,0,1.23-1.09A1.09,1.09,0,0,0,128.46,12.74Z" fill="#fff"/><path d="M136.95,18.27h4.59a.94.94,0,1,1,0,1.88h-5.69a1.11,1.11,0,0,1-1.1-1.1V12a1.11,1.11,0,0,1,1.1-1.1h5.47a.94.94,0,1,1,0,1.88h-4.36v1.71h2.52a.94.94,0,1,1,0,1.88h-2.52Z" fill="#fff"/></svg>