<svg id="Layer_1" data-name="Layer 1" xmlns="http://www.w3.org/2000/svg" viewBox="0 0 118.32 20"><title>_</title><path d="M11.19,9.5l-.27-.9-1,0-1.08,0s.09.56.12,1.26a9.64,9.64,0,0,1,2.25-.35" fill="#fff"/><path d="M10,11.74a3,3,0,0,0-1,.53V14a36.91,36.91,0,0,1-.13,3.7,6.3,6.3,0,0,1,.63,0c.36,0,.63,0,.63,0A36.2,36.2,0,0,1,10,14Z" fill="#fff"/><path d="M12.93,15a1.89,1.89,0,0,0,1-.62v-2c0-1.24,0-2.34.13-3.71a6,6,0,0,1-.65,0,5.18,5.18,0,0,1-.62,0,36.27,36.27,0,0,1,.14,3.69Z" fill="#fff"/><path d="M11.55,15.12A5.22,5.22,0,0,0,12.81,15l-1-3.54h-.21a4.94,4.94,0,0,0-1.44.25c.29,1,.67,2.21,1,3.41l.42,0" fill="#fff"/><path d="M11.71,17.06l.17.61s.51,0,1,0,1.11,0,1.11,0,0-.49,0-.9a9.63,9.63,0,0,1-2.25.29" fill="#fff"/><path d="M14.51,10.57c0,.49,0,1,0,1.49a2.33,2.33,0,0,1,.31,1.23c0,2.36-2.53,2.4-3.26,2.4a5,5,0,0,1-1-.12c0,.3,0,.59,0,.88a7.7,7.7,0,0,0,.86,0c2.26,0,5-.6,5-3.22a2.79,2.79,0,0,0-2-2.71" fill="#fff"/><path d="M8.37,15.93c0-.7,0-1.87,0-2.65a6.34,6.34,0,0,1,0-1.24,4.64,4.64,0,0,1,3.14-1.16,6.85,6.85,0,0,1,.81,0c0-.29,0-.56,0-.82-.31,0-.61,0-.91,0a10.41,10.41,0,0,0-4.52,1.2s.06.53.06,2-.06,2-.06,2a10.24,10.24,0,0,0,1.46.63" fill="#fff"/><path d="M11.38,0,0,19.71H22.76Zm0,2.63,9.1,15.77H2.28Z" fill="#fff"/><path d="M38.85,15.61V10.72a60.48,60.48,0,0,0-.23-6.17,8.3,8.3,0,0,0,1,.05,9.7,9.7,0,0,0,1.07-.05c-.21,2.29-.21,4.13-.21,6.2v5c0,.85.07,3.41.1,3.92,0,0-1,0-2,0s-1.77,0-1.77,0c-1.71-2.16-6.36-8.28-8.46-10.84v4.68a60.62,60.62,0,0,0,.23,6.17,10.41,10.41,0,0,0-1.05-.05,10.28,10.28,0,0,0-1,.05,61.72,61.72,0,0,0,.21-6.2V7.73a22.61,22.61,0,0,0-.23-3.18s1.32.05,1.9.05,1.82-.05,1.82-.05c1.48,2,6.26,8.18,8.59,11.06" fill="#fff"/><path d="M54.2,11C53,7.66,52.35,5.74,52,4.55c0,0-.88.05-1.86.05-1.16,0-1.85-.05-1.85-.05s-1.51,4.68-3.1,8.83c-1.09,2.84-2.18,5.42-2.57,6.33,0,0,.51,0,1.18,0s1.24,0,1.24,0a44.76,44.76,0,0,1,1.35-5c1,0,1.94,0,2.51,0s1.3,0,2.22,0c.67,2.47,1.19,4.32,1.35,5,0,0,1.09,0,2.43,0s2.51,0,2.51,0C57,18.74,55.56,15,54.2,11m-5.3,2.34c-.73,0-1.33,0-2.06,0C47.62,11,49,7.5,49,7.5s.87,2.42,1.57,5.06l.22.82c-.62,0-1.22,0-1.87,0" fill="#fff"/><path d="M67,20c-2.54,0-8.75-1.13-8.75-7.79,0-5.6,4.14-8,9.21-8a10.91,10.91,0,0,1,6,1.4V8.51H73.3a5.77,5.77,0,0,0-5.45-3c-2.68,0-5.08,1.63-5.08,6.73,0,5.9,3.09,6.47,4.54,6.47a3.85,3.85,0,0,0,2-.45c.18-.1.18-.18.2-.46,0,0,0-.67,0-2a20.48,20.48,0,0,0-.25-3.14c.44,0,1.27.05,2.24.05s1.81,0,2.24-.05a50.72,50.72,0,0,0-.22,6A15.13,15.13,0,0,1,67,20" fill="#fff"/><path d="M87.14,11C86,7.66,85.29,5.74,85,4.55c0,0-.88.05-1.86.05-1.16,0-1.85-.05-1.85-.05s-1.51,4.68-3.1,8.83c-1.08,2.83-2.18,5.42-2.57,6.33,0,0,.51,0,1.18,0s1.24,0,1.24,0a44.73,44.73,0,0,1,1.35-5c1,0,1.94,0,2.51,0s1.31,0,2.22,0c.67,2.47,1.19,4.32,1.35,5,0,0,1.09,0,2.43,0s2.51,0,2.51,0c-.43-1-1.87-4.71-3.22-8.67m-5.3,2.34c-.73,0-1.33,0-2.06,0,.79-2.35,2.15-5.87,2.15-5.87s.87,2.42,1.57,5.06l.22.82c-.62,0-1.22,0-1.87,0" fill="#fff"/><path d="M103.62,7.92h-.15a4.6,4.6,0,0,0-4.34-2.43c-2.79,0-3.1,1.24-3.1,1.81C96,9,97.8,9.59,100,10.62c1.88.89,4.8,1.94,4.8,5,0,2.2-2,4.35-6.92,4.35a10.56,10.56,0,0,1-5.72-1.46c0-.87,0-2.4,0-3.18h.2a5.57,5.57,0,0,0,5.34,3.42c1.73,0,2.92-.71,2.92-2,0-1.64-2.15-2.46-3.63-3.19s-4.65-2-4.65-5c0-2.75,2.26-4.36,6.1-4.36a21.66,21.66,0,0,1,4.3.59c.11,0,.62.13.91.17,0,.64,0,2,0,2.9" fill="#fff"/><path d="M118.32,17.94a18.15,18.15,0,0,1-4.23.45c-1.43,0-2.29,0-2.29,0s0-1.76,0-3.66V12.62s1.33,0,2.34,0a15,15,0,0,1,2.72.19,15.65,15.65,0,0,1,0-1.6,20.85,20.85,0,0,1-2.74.17c-1.47,0-2.32-.06-2.32-.06V8.91c0-2.14,0-3,0-3s.89-.07,2.16-.07a19.37,19.37,0,0,1,3.89.37c-.16-.88-.25-1.66-.25-1.66-1.18.09-2.7.1-4.83.1s-5-.1-5-.1c.06.69.2,2.73.2,7.17,0,5.09-.12,7.29-.17,8,0,0,2.95-.1,5.15-.1s3.17,0,5,.1a10.23,10.23,0,0,1,.38-1.77" fill="#fff"/></svg>