<svg id="Layer_1" data-name="Layer 1" xmlns="http://www.w3.org/2000/svg" viewBox="0 0 74.17 10.02"><title>_</title><path d="M6.93,6.16V1.1a1.1,1.1,0,0,1,2.2,0V8.84A1.06,1.06,0,0,1,8,9.94a1,1,0,0,1-.85-.39l-5-5.66V8.84a1.11,1.11,0,0,1-1.1,1.1A1.11,1.11,0,0,1,0,8.84V1.1A1.05,1.05,0,0,1,1.1,0,1.18,1.18,0,0,1,2,.42Z" fill="#fff"/><path d="M20.82,8.44a1.36,1.36,0,0,1,.12.48,1.07,1.07,0,0,1-2.06.35l-.79-1.58H13.93l-.79,1.58a1.07,1.07,0,0,1-2.06-.35,1.36,1.36,0,0,1,.12-.48L15,.62A1,1,0,0,1,16,0a1,1,0,0,1,1,.62ZM14.7,5.93h2.6L16,2.91Z" fill="#fff"/><path d="M26.64,8.78a1.16,1.16,0,1,1-2.31,0V2.12H21.77a1,1,0,0,1,0-2H29.2a1,1,0,0,1,0,2H26.64Z" fill="#fff"/><path d="M38.88,1.16a1.16,1.16,0,0,1,2.31,0V5.84c0,2.52-1.73,4.18-4.62,4.18s-4.62-1.66-4.62-4.18V1.16a1.16,1.16,0,0,1,2.31,0V6a2,2,0,0,0,2.31,2,2,2,0,0,0,2.31-2Z" fill="#fff"/><path d="M46.42,8.78a1.16,1.16,0,1,1-2.31,0V1.31A1.16,1.16,0,0,1,45.26.15h4.08c2.75,0,3.91,1.35,3.91,3a2.69,2.69,0,0,1-1.83,2.66l1.37,2.5a1,1,0,0,1,.15.54,1,1,0,0,1-1.08,1.06,1,1,0,0,1-1-.54L49.12,6.16h-2.7ZM49.69,2H46.42V4.29h3.27A1.16,1.16,0,0,0,51,3.16,1.14,1.14,0,0,0,49.69,2Z" fill="#fff"/><path d="M64.57,8.44a1.37,1.37,0,0,1,.12.48,1.07,1.07,0,0,1-2.06.35l-.79-1.58H57.67l-.79,1.58a1.07,1.07,0,0,1-2.06-.35,1.36,1.36,0,0,1,.12-.48L58.79.62a1,1,0,0,1,1-.62,1,1,0,0,1,1,.62Zm-6.13-2.5H61l-1.29-3Z" fill="#fff"/><path d="M73.18,7.82a1,1,0,1,1,0,2H67.79a1.16,1.16,0,0,1-1.16-1.16V1.16a1.16,1.16,0,1,1,2.31,0V7.82Z" fill="#fff"/></svg>