<svg xmlns="http://www.w3.org/2000/svg" viewBox="0 0 200.07 30.8"><title>flags</title><g id="Layer_2" data-name="Layer 2"><polygon points="200.07 30.8 0 30.8 8.11 15.4 0 0 200.07 0 191.96 15.4 200.07 30.8" fill="#00a887"/><path d="M30.11,19.66a4.36,4.36,0,0,1-4.63-4.46,4.36,4.36,0,0,1,4.63-4.46,4.36,4.36,0,0,1,4.63,4.46A4.36,4.36,0,0,1,30.11,19.66Zm0-1.74A2.54,2.54,0,0,0,32.7,15.2a2.59,2.59,0,1,0-5.18,0A2.54,2.54,0,0,0,30.11,17.92Z" fill="#fff"/><path d="M39.25,18.57a1,1,0,1,1-2,0V12a1,1,0,0,1,1-1h5.09a.87.87,0,1,1,0,1.74H39.25v1.58h2.37a.87.87,0,0,1,0,1.74H39.25Z" fill="#fff"/><path d="M48.12,18.57a1,1,0,1,1-2,0V12a1,1,0,0,1,1-1h5.09a.87.87,0,1,1,0,1.74H48.12v1.58h2.37a.87.87,0,1,1,0,1.74H48.12Z" fill="#fff"/><path d="M58.11,16.1H54.63a.88.88,0,1,1,0-1.75h3.47a.88.88,0,1,1,0,1.75Z" fill="#fff"/><path d="M67.76,16.25V11.77a1,1,0,0,1,1.94,0v6.85a.94.94,0,0,1-1,1,.93.93,0,0,1-.75-.34l-4.41-5v4.38a1,1,0,0,1-1.94,0V11.77a.93.93,0,0,1,1-1,1,1,0,0,1,.77.37Z" fill="#fff"/><path d="M76.8,19.66a4.36,4.36,0,0,1-4.63-4.46,4.64,4.64,0,0,1,9.26,0A4.36,4.36,0,0,1,76.8,19.66Zm0-1.74a2.54,2.54,0,0,0,2.59-2.72,2.59,2.59,0,1,0-5.18,0A2.54,2.54,0,0,0,76.8,17.92Z" fill="#fff"/><path d="M87.59,18.57a1,1,0,1,1-2,0V12.68H83.28a.87.87,0,0,1,0-1.74h6.57a.87.87,0,0,1,0,1.74H87.59Z" fill="#fff"/><path d="M94.68,17.72h4.24a.87.87,0,0,1,0,1.74H93.66a1,1,0,0,1-1-1V12a1,1,0,0,1,1-1h5.06a.87.87,0,1,1,0,1.74h-4v1.58H97A.87.87,0,1,1,97,16H94.68Z" fill="#fff"/><path d="M116.86,18.62a1,1,0,1,1-1.91,0V15.09l-2.06,4a.94.94,0,0,1-1.7,0l-2.06-4v3.53a1,1,0,1,1-1.91,0V11.67a.87.87,0,0,1,1-.87,1,1,0,0,1,.92.56L112,17,115,11.36a1,1,0,0,1,.92-.56.87.87,0,0,1,1,.87Z" fill="#fff"/><path d="M127.74,18.26a1.21,1.21,0,0,1,.1.43A.94.94,0,0,1,126,19l-.7-1.4h-3.68l-.7,1.4a.94.94,0,0,1-1.82-.31,1.21,1.21,0,0,1,.1-.43l3.41-6.91a.86.86,0,0,1,.85-.54.88.88,0,0,1,.85.54ZM122.32,16h2.3l-1.14-2.67Z" fill="#fff"/><path d="M133.45,19.66a5.54,5.54,0,0,1-3.35-1,1.07,1.07,0,0,1-.54-.85.86.86,0,0,1,.89-.85,1.18,1.18,0,0,1,.68.24,3.83,3.83,0,0,0,2.3.75c1,0,1.67-.32,1.67-.94s-.82-.82-1.5-1c-3-.68-3.83-1.38-3.83-2.84s1.34-2.5,3.81-2.5a5.84,5.84,0,0,1,2.59.6,1,1,0,0,1,.66.9A.78.78,0,0,1,136,13a1.31,1.31,0,0,1-.58-.14,4.38,4.38,0,0,0-1.84-.46c-1.17,0-1.79.24-1.79.78s.44.61,1.82,1c2.32.58,3.51,1.09,3.51,2.76S135.7,19.66,133.45,19.66Z" fill="#fff"/><path d="M140.62,10.8a1,1,0,0,1,1,1v2.55l3.83-3.3a1.05,1.05,0,0,1,.7-.27.92.92,0,0,1,1,.88.85.85,0,0,1-.32.72l-2.25,1.91,2.67,3.83a.84.84,0,0,1,.17.54.93.93,0,0,1-1,.9,1,1,0,0,1-.85-.43l-2.49-3.61-1.48,1.29v1.72a1,1,0,1,1-2,0V11.82A1,1,0,0,1,140.62,10.8Z" fill="#fff"/><path d="M149.89,11.82a1,1,0,0,1,2,0v6.74a1,1,0,1,1-2,0Z" fill="#fff"/><path d="M161.18,16.25V11.77a1,1,0,1,1,1.94,0v6.85a.94.94,0,0,1-1,1,.93.93,0,0,1-.75-.34l-4.41-5v4.38a1,1,0,0,1-1.94,0V11.77a.93.93,0,0,1,1-1,1,1,0,0,1,.77.37Z" fill="#fff"/><path d="M170.9,14.79h2.61a.81.81,0,0,1,.83.83v2a.79.79,0,0,1-.26.6,5.28,5.28,0,0,1-3.68,1.43c-3.3,0-4.82-2-4.82-4.46,0-2.78,1.89-4.46,4.82-4.46a4.9,4.9,0,0,1,3.17,1.09.89.89,0,0,1,.32.65.87.87,0,0,1-.92.85,1.08,1.08,0,0,1-.65-.2,3.24,3.24,0,0,0-1.92-.63,2.53,2.53,0,0,0-2.78,2.71A2.6,2.6,0,0,0,170.46,18a3.35,3.35,0,0,0,1.92-.56v-1H170.9a.83.83,0,0,1,0-1.67Z" fill="#fff"/></g></svg>