<svg id="Layer_1" data-name="Layer 1" xmlns="http://www.w3.org/2000/svg" viewBox="0 0 133.03 26.78"><title>_</title><path d="M23,.24H.35L0,3.54s1.55-.41,8.76-.31L8.9,24.59s0,1.78-.43,2.19h6.36a6.6,6.6,0,0,1-.42-2.39V3.24s4,0,8.48.31Z" fill="#fff"/><path d="M25.85.24A12.87,12.87,0,0,0,25.71,3L26,24.89a19,19,0,0,0-.29,1.88h6.36l-.13-2.08V2.93S42.38,1.51,42.24,6.8c0,0,1.55,5.69-8.19,5L42.38,25l.84,1.78h6.92L41.25,14s7.21-1.07,7.21-7.42c0,0,.84-6.25-11.59-6.36Z" fill="#fff"/><path d="M52,.24l.3,1.88.15,22.47-.3,2.19H72.79l-.14-3a128.81,128.81,0,0,1-14.41.41V14.73a89.17,89.17,0,0,1,10,.41l-.15-3.56a90.27,90.27,0,0,1-9.75.2L58.25,3s11.79.2,14.12.61V.24Z" fill="#fff"/><polygon points="91.87 26.54 98.09 26.54 97.67 24.86 97.81 1.17 97.95 0 92.01 0 92.02 1.27 92.02 10.93 80.64 10.93 80.58 1.37 80.71 0 74.78 0 74.78 1.98 74.78 24.96 74.64 26.54 80.99 26.54 80.72 24.86 80.66 14.39 92.02 14.39 92.02 24.86 91.87 26.54" fill="#fff"/><path d="M120.65,26.66h6.5l-1-1.78L115.7.12h-6.5l1.31,2s-5.83,13.2-10.92,24.52H105l.29-2.29,1.6-3.87h11.37ZM108.19,17.3,112.7,6.42,117,17.3Z" fill="#fff"/><path d="M130.09,5.95a2.92,2.92,0,0,1-2.94-3A2.94,2.94,0,1,1,133,3,2.92,2.92,0,0,1,130.09,5.95Zm0-5.44A2.39,2.39,0,0,0,127.68,3a2.41,2.41,0,1,0,4.81,0A2.38,2.38,0,0,0,130.09.5Zm-.39,3v1h-.81V1.4h1.45a1,1,0,0,1,1.14,1.07.91.91,0,0,1-.62.94l.73,1.11h-.89l-.65-1Zm.57-1.41h-.57v.76h.57a.38.38,0,1,0,0-.76Z" fill="#fff"/></svg>