<svg xmlns="http://www.w3.org/2000/svg" viewBox="0 0 59.45 16.98"><title>use_flag</title><g id="Layer_2" data-name="Layer 2"><polygon points="59.45 16.98 0 16.98 3.69 8.58 0 0.18 59.45 0.18 55.76 8.58 59.45 16.98" fill="#00a887"/><path d="M22.81,5.83a.9.9,0,1,1,1.8,0V9.47c0,2-1.35,3.25-3.6,3.25s-3.6-1.29-3.6-3.25V5.83a.9.9,0,1,1,1.8,0V9.6A1.58,1.58,0,0,0,21,11.19a1.58,1.58,0,0,0,1.8-1.59Z" fill="#fff"/><path d="M30.32,12.72a4.88,4.88,0,0,1-3-.84.94.94,0,0,1-.48-.75.76.76,0,0,1,.78-.75,1,1,0,0,1,.6.21,3.37,3.37,0,0,0,2,.66c.88,0,1.47-.28,1.47-.82s-.72-.72-1.32-.85c-2.68-.6-3.37-1.21-3.37-2.5s1.18-2.2,3.36-2.2a5.13,5.13,0,0,1,2.28.52.85.85,0,0,1,.58.79.68.68,0,0,1-.72.67,1.15,1.15,0,0,1-.51-.12,3.84,3.84,0,0,0-1.62-.4c-1,0-1.57.21-1.57.69s.39.54,1.6.84c2,.51,3.09,1,3.09,2.43S32.29,12.72,30.32,12.72Z" fill="#fff"/><path d="M37.52,11h3.73a.76.76,0,1,1,0,1.53H36.62a.9.9,0,0,1-.9-.9V5.95a.9.9,0,0,1,.9-.9h4.45a.76.76,0,1,1,0,1.53H37.52V8h2.05a.76.76,0,1,1,0,1.53H37.52Z" fill="#fff"/></g></svg>